<svg width="483" height="130" viewBox="0 0 483 130" fill="none" xmlns="http://www.w3.org/2000/svg">
<g clip-path="url(#clip0_23_50)">
<rect x="1" y="1" width="128" height="128" rx="64" fill="#0065F4"/>
<mask id="mask0_23_50" style="mask-type:alpha" maskUnits="userSpaceOnUse" x="1" y="1" width="128" height="128">
<rect x="1" y="1" width="128" height="128" fill="#0065F4"/>
</mask>
<g mask="url(#mask0_23_50)">
<path d="M8.55646 140.322C8.44726 140.282 7.17064 139.072 7.13981 138.975C6.85228 138.435 7.42384 137.26 5.86294 136.838C6.85943 135.71 6.11656 134.527 4.45198 134.358C4.75395 134.174 5.14506 133.958 5.52782 133.745C5.83119 133.557 6.16453 133.36 6.52511 133.152C6.48353 132.997 6.44272 132.84 6.40114 132.685C5.94665 132.414 5.55067 132.264 5.16874 132.203C4.74552 132.155 4.2107 132.235 3.78147 132.331C3.77025 132.179 3.7599 132.026 3.74942 131.873C4.42865 130.88 5.43911 130.407 5.91163 129.182C5.26615 129 4.67378 128.797 4.13918 128.574C3.46545 128.396 2.9665 128.158 2.32694 127.963C2.35517 127.832 2.38694 127.699 2.42065 127.566C2.71151 127.156 3.83471 126.608 4.07155 126.231C5.24101 124.709 2.64172 125.842 2.86169 125.073C4.37617 124.614 6.01892 124.089 7.53492 123.591C7.53955 123.096 1.07473 123.816 0.816518 122.327C1.33871 122.061 1.68182 121.848 2.22901 121.568C1.90806 121.279 1.55291 120.999 1.24739 120.705C1.2759 120.571 1.30523 120.437 1.33672 120.303C1.78019 120.01 2.05883 119.767 2.43341 119.492C2.78858 119.224 3.24423 118.92 3.54801 118.666C1.19562 119.756 -0.157371 119.943 -1.27644 117.204C-1.30375 117.134 -1.27626 117.047 -1.19774 116.945C-0.195782 118.572 2.11425 117.21 3.32814 116.411C3.11829 116.197 2.78082 116.277 2.43576 116.387C2.0375 116.515 1.68799 116.652 1.52513 116.534C1.43398 116.464 1.57229 116.028 1.36302 115.895C1.08152 115.725 0.522699 115.608 -0.0825165 115.487C-0.612726 115.342 -1.03962 115.146 -0.994725 114.812C-1.04516 114.425 1.87409 112.914 2.31544 112.802C0.886058 112.538 -0.620016 112.814 -2.06773 112.363C-1.50772 110.939 -1.28055 109.338 0.253131 108.764C0.492162 108.031 -2.83201 108.196 -2.96776 107.871C-2.65012 107.58 -2.58223 107.364 -2.33409 107.092C-2.11864 106.831 -1.82606 106.545 -1.66011 106.299C-2.00364 106.513 -2.59323 106.805 -2.90262 107.004C-2.93503 106.886 -2.96759 106.766 -3 106.648C-2.07383 105.761 -1.13734 104.357 0.116371 104.01C-0.125734 103.408 -0.822035 103.708 -1.25695 103.845C0.895051 99.2795 3.99991 102.296 7.10553 101.811C13.9319 100.754 35.9014 90.2638 42.0882 87.3451C46.7843 85.1505 51.4965 82.9179 55.8399 80.489C56.0618 80.3645 56.3707 80.6393 56.4714 80.5826C57.4142 80.0555 58.7923 78.7416 59.6847 78.1992C61.6122 77.0569 64.6425 74.7368 66.2814 73.8258C67.011 73.4244 67.667 72.9373 68.4362 73.488C68.6847 73.331 68.3211 72.5489 68.3462 72.4559L68.3498 72.4551C68.4482 72.1793 69.2287 72.2472 69.3168 72.1194C69.328 72.101 68.8776 71.7 69.2264 71.6217C69.2583 71.6169 69.4843 71.9589 69.6873 71.7758C69.7457 71.7247 70.0109 70.5944 70.1556 70.3909C70.6597 69.7262 72.3042 68.6483 72.8234 67.9714C72.9115 67.8626 72.7961 67.6305 72.8817 67.5155C72.927 67.4577 73.1729 67.55 73.187 67.5318C73.2455 67.4433 72.6591 66.3045 74.225 68.0182C74.3928 67.5529 73.7526 67.1452 73.4012 66.7981C73.6156 66.3864 74.5394 66.9255 73.7478 66.0801C75.0769 64.3987 75.7199 63.0303 75.953 62.4148C75.7811 62.3704 75.6079 62.3258 75.436 62.2814C76.1574 62.2582 74.9846 62.0179 76.0041 62.0899C75.7849 62.0117 75.562 61.9537 75.3385 61.9146C75.5323 61.7317 75.6245 61.4695 75.3028 60.6437C73.3858 55.9482 70.8423 53.4365 68.3603 51.7713C68.2086 51.6688 68.351 51.2818 68.086 51.1143C67.7915 50.9293 67.1844 51.1288 66.784 50.9291C66.4382 50.7534 65.9924 50.138 65.5527 49.9165C65.4554 49.8689 65.3165 50.0908 65.3024 50.0918C65.2372 50.0585 65.3348 49.6542 65.2695 49.6198C65.1909 49.5796 65.021 49.8458 64.9318 49.7993C64.5978 49.6214 64.1802 49.6173 64.1299 49.5986C63.9138 49.5024 63.929 49.0929 63.9113 49.0779C63.6594 48.967 63.6946 49.3543 63.6343 49.3206C63.3237 49.1352 63.1909 48.1651 62.5942 48.9618C62.6464 48.6231 62.6998 48.2839 62.7531 47.9454C62.3849 47.6895 62.5419 48.6392 62.4455 48.7906C62.4102 48.8428 61.598 48.6205 61.5273 48.6004C61.306 48.5162 61.3259 48.064 61.307 48.0504C61.2562 48.029 60.6476 48.4953 60.3538 48.082C59.9957 47.5881 60.4595 46.6811 60.3738 46.4999C60.3583 46.4687 59.9509 46.5435 59.8988 46.2514C59.8417 45.935 60.1996 45.9568 60.1975 45.8258C60.1993 45.734 59.6027 45.065 59.7189 44.6344C59.8213 44.1981 60.6496 44.7977 60.8254 44.6097C60.8557 44.5779 60.8238 44.0348 60.8503 44.0169C60.9735 43.9367 62.8687 44.1393 62.9323 44.257C62.8099 44.4848 62.6882 44.7127 62.5701 44.9423C62.6929 44.9851 62.8154 45.03 62.9367 45.0745C62.7386 45.2403 62.5441 45.4108 62.3512 45.5816C62.417 47.6162 63.3653 45.7136 63.5494 44.7312C63.6325 44.2747 63.2606 42.9955 63.8339 42.3939C63.7747 42.2618 63.7148 42.1281 63.6536 41.9963C63.4737 42.163 63.2959 42.3342 63.1209 42.5046C63.2101 42.6434 63.2975 42.7828 63.3838 42.9224C63.3307 43.0539 63.2779 43.1855 63.2257 43.3173C62.9205 43.4933 62.62 43.6786 62.3234 43.8658C62.1894 43.7443 62.2525 43.3342 62.1586 43.2422C60.9518 42.0992 61.701 43.4624 60.8793 43.2069C60.7688 42.9765 60.6541 42.7469 60.5387 42.5177C60.5557 43.4392 60.1933 42.8382 59.7292 43.2199C59.7862 42.9246 59.8438 42.6287 59.9033 42.3338C59.2436 42.4561 57.7872 40.9775 58.2164 42.6142C58.0551 42.4768 57.8925 42.3402 57.728 42.2052C57.6051 42.4775 57.4845 42.7503 57.3666 43.024C57.1827 43.001 56.9988 42.9784 56.8099 42.9586C56.7998 42.814 56.7904 42.6686 56.7803 42.524C56.9299 42.5143 57.0776 42.5049 57.2239 42.4974C57.0894 42.0601 56.9526 41.6217 56.8089 41.1861C56.7 41.2656 56.5925 41.3478 56.4849 41.4284C56.9841 41.8176 56.4077 42.5401 56.3102 43.1353C55.9453 43.3785 55.6339 42.6494 55.4982 42.6229C55.435 42.6108 54.8411 44.0222 54.9752 42.5269C54.6146 42.7457 54.2589 42.9693 53.9101 43.1978C53.7501 43.106 53.5927 43.0148 53.4269 42.9255C53.6665 42.1959 52.5935 41.5213 53.2681 41.1322C53.7646 40.8457 53.9739 41.4676 54.22 41.4317C54.4419 41.4001 54.5135 40.9572 54.7576 40.9096C56.3883 40.6123 57.7398 40.6269 59.2549 40.84C59.5526 40.8835 59.8257 40.6828 60.0263 40.7208C60.2517 40.7649 59.9615 41.2932 60.2492 41.1748C60.5498 41.0507 60.6282 40.617 60.7075 40.6106C60.7574 40.6088 60.9 41.0149 61.0412 41.0257C61.6194 41.0654 62.4951 40.7901 62.5814 40.8027C62.6805 40.8075 64.2531 41.429 64.3067 41.5191C64.3428 41.5646 64.0471 42.9873 64.6168 41.5215C64.7285 41.516 64.8403 41.5118 64.9521 41.5079C64.8877 41.7913 64.8237 42.076 64.7603 42.3597C65.5621 41.4163 65.2545 41.9732 65.8627 42.0454C67.3403 42.2175 69.2581 43.2382 70.6443 43.9263C70.9533 44.0751 71.2097 43.8315 71.5781 44.0304C71.9334 44.2203 72.2778 45.6766 72.7664 44.3293C72.8736 45.88 74.0463 44.2002 73.7178 45.5789C73.8602 45.4546 74.0058 45.3341 74.1495 45.2114C74.0768 46.1912 74.5732 45.6932 75.0332 45.9838C75.2292 46.1116 74.5263 46.6048 75.4352 46.1741C75.459 46.2938 75.4829 46.4143 75.5052 46.5342C75.3644 46.6815 75.2222 46.83 75.0823 46.9783C75.5502 47.206 75.5025 47.3136 75.9427 46.6743C76.0325 46.9639 76.1184 47.2563 76.2001 47.5491C76.3847 47.3827 76.5715 47.2172 76.7575 47.0524C77.0654 46.4386 72.1984 43.2159 71.3688 43.2511C70.8169 42.2275 68.8683 42.123 68.2218 41.7459C67.9601 41.5857 67.9965 40.9644 67.5864 40.7476C67.1754 40.5313 66.5166 40.8993 66.2892 40.8562C65.5533 40.6482 61.7895 39.885 64.4623 39.6022C64.4285 39.2978 64.3923 38.9933 64.3534 38.6886C63.1711 39.492 63.6381 38.9461 62.7597 38.7176C62.3874 38.621 61.4582 39.1891 61.5772 37.8639C62.311 37.6799 63.0331 38.2018 63.638 38.2803C63.6956 38.2848 64.497 37.8066 64.8441 38.0474C65.1588 38.2673 64.727 39.4604 65.6695 38.2239C65.9599 39.7154 66.479 38.5596 66.6505 38.4683C66.9371 38.3091 66.8265 38.9867 67.0428 39.1335C67.2759 39.2922 67.5503 38.9156 67.5898 38.919C67.9544 39.003 69.764 39.6363 69.7531 39.9471C69.6457 40.0305 69.5387 40.1143 69.4329 40.1992C69.8204 40.5721 69.9437 39.8814 70.0904 39.8546C70.1791 39.8971 70.2662 39.9391 70.3528 39.9819C70.2707 40.1008 70.19 40.2208 70.109 40.3404C70.6398 40.5554 70.4087 39.8919 71.1514 40.2746C71.6257 40.5238 71.8917 41.295 71.946 41.2805C71.9633 41.2644 71.9712 40.8633 72.1732 40.9236C72.5138 41.0245 73.0387 41.3622 72.8765 41.8434C73.0529 41.8735 73.2592 41.4339 73.2838 41.4367C73.409 41.443 74.9196 42.3125 75.1875 42.5107C75.9424 43.0079 76.6182 43.7369 77.3794 44.3851C77.4521 44.4501 77.2228 44.6413 77.2971 44.7041C77.4168 44.7978 78.2936 45.0384 78.4072 45.1155C78.677 45.2848 79.1182 46.085 79.2859 46.0798C79.3126 46.076 79.4144 45.5737 79.7084 45.7334C80.0347 45.9154 79.5334 46.1526 79.54 46.1729C79.8708 46.8736 80.4274 46.9931 80.7937 47.3737C80.9123 47.5002 80.7909 48.0209 81.01 48.1303C81.0356 48.1435 81.2895 47.8562 81.3185 47.8659C81.6702 48.0334 81.3251 48.7595 81.3726 48.9165C81.4942 49.3038 81.781 48.8109 81.7945 48.8246C81.9468 49.0312 81.9899 49.4372 82.216 49.7634C83.1916 51.173 83.9207 52.5077 84.6652 54.2494C84.7597 54.4731 84.5644 54.9029 84.5763 54.941C84.6243 55.0462 84.9811 54.8209 85.1056 55.1395C85.1735 55.3151 85.2439 55.4869 85.3126 55.6585C85.4851 56.091 85.6445 56.5003 85.7799 56.9287C85.8167 57.046 85.4763 57.2334 85.4938 57.3218C85.5666 57.6025 86.7806 58.3063 85.5846 58.6656C86.7813 58.9763 85.9323 59.6059 86.0039 60.0396C86.1952 61.0795 86.4394 62.8458 86.1493 63.916C86.0912 64.141 85.7656 64.187 85.7294 64.3064C85.6822 64.5151 85.5839 65.8622 85.5073 65.9113C85.377 66.0203 84.0737 65.4462 85.0461 66.5397C85.0097 66.966 84.484 66.6962 84.4269 66.7594C84.0208 67.2621 84.9437 68.4772 83.9156 67.808C83.9346 68.6498 84.2698 69.5032 83.1632 69.189C83.6376 69.478 83.7514 70.0091 83.3511 70.3123C82.7941 69.3583 82.2837 69.0901 82.8664 68.2252C82.8922 68.2248 83.2005 68.4367 83.2165 68.4289C83.3028 68.3024 83.25 67.9153 83.3613 67.6954C83.4728 67.4747 83.6641 67.7279 83.6967 67.633C83.7254 67.5444 83.3856 67.3765 83.427 67.2486C83.5675 66.8342 83.5873 66.4397 83.6499 66.214C83.6897 66.0728 84.0438 66.0342 84.0753 65.922C84.2003 65.4897 84.1553 64.5163 84.2591 64.0053C84.2828 63.8975 84.6394 64.0174 84.7018 63.7753C84.7087 63.7466 84.3466 63.575 84.287 63.3588C84.2288 63.1417 84.4274 63.0026 84.3962 62.8643C84.3684 62.7509 84.0316 62.7645 84.0188 62.5457C84.0535 62.3729 84.1692 60.2751 84.1601 60.1357C84.2123 59.9573 84.6597 59.7824 84.5835 59.6851C84.5541 59.6711 84.1126 59.7307 84.0694 59.6762C83.6035 59.0606 83.463 57.9801 83.1117 56.7549C82.8573 55.9194 82.6091 55.1605 82.365 54.6421C80.9294 51.6036 79.1356 49.2755 77.0822 47.1217C76.9905 47.1443 76.8971 47.1664 76.8061 47.1903C77.0043 47.4151 77.2065 47.6533 77.3976 47.8864C77.2432 48.0523 77.0885 48.2179 76.9341 48.3838C77.1581 48.7087 77.499 48.2873 77.7168 48.0459C77.7164 48.2609 77.7153 48.4773 77.7112 48.6917C78.3488 48.2335 78.6152 49.4427 78.9091 49.8749C79.1034 50.1533 79.5618 50.3122 79.6478 50.486C79.8274 50.8516 79.4439 51.142 79.4548 51.1726C79.4751 51.2201 80.1081 51.4441 80.3007 51.8048C80.5795 52.3321 80.005 52.7926 80.913 53.1771C81.1119 54.3543 81.7615 55.2725 82.2954 56.3686C81.848 56.4344 82.1155 56.7495 82.4029 57.1064C82.535 57.2466 82.6688 57.3922 82.7113 57.5164C83.4724 59.6773 83.42 62.0898 82.8083 63.9565C82.7323 64.2035 82.3139 64.2888 82.2969 64.4284C82.2907 64.5044 82.7202 64.6727 82.6398 64.7629C82.6239 64.7781 82.207 64.661 82.0969 64.8303C81.8516 65.2143 82.0529 66.8407 81.1599 66.7541C80.5538 68.5534 79.5221 70.5046 78.208 72.4162C78.0392 72.3316 77.8699 72.2477 77.7019 72.1617C78.0979 73.2062 76.6006 74.1305 76.0106 74.8222C75.0225 76.0259 73.7157 77.7027 72.6812 78.6665C72.4564 78.8769 72.1091 78.8203 71.8915 79.0166C71.7982 79.1019 71.8803 79.5015 71.7803 79.5901C70.644 80.6094 68.8974 81.5354 67.659 82.4723C64.9202 84.5499 62.1139 86.3507 59.0757 88.222C48.7736 94.53 23.658 105.959 12.2043 110.106C12.0543 110.158 11.9348 109.754 11.819 109.795C11.1486 110.029 9.60964 110.973 8.86427 111.223C8.24254 111.435 7.0034 111.195 6.9873 111.889C9.58624 112.006 11.8607 111.081 14.293 110.431C14.4655 110.386 14.6086 110.75 14.6344 110.758C15.0593 110.741 14.6701 110.301 15.1896 110.071C15.3563 109.998 17.4321 110.549 16.8339 109.416C17.4172 109.736 34.3804 102.958 34.8797 102.56C35.0296 102.442 34.789 102.135 34.8158 102.104C34.9321 101.965 35.1678 102.43 35.3013 102.388C35.6627 102.271 36.3779 101.506 36.5374 101.44C36.9086 101.287 38.1752 101.201 38.642 100.887C39.0669 100.599 38.7962 100.125 39.1749 99.9032C39.473 99.73 39.295 100.308 40.022 100.134C40.3812 100.049 41.4515 99.2095 41.7419 99.0749C42.0305 98.9428 42.4669 99.0957 42.8588 98.8868C43.4282 98.5851 44.5822 97.8451 45.1247 97.4689C45.157 97.4469 45.0867 97.0113 45.1747 96.9787C45.3559 96.9126 45.4941 97.4184 45.6459 97.4062C45.8027 97.3934 48.07 96.2102 48.4543 96.0186C48.7218 95.8876 48.7877 95.5085 48.9356 95.4367C49.0518 95.3811 49.2297 95.7737 49.3495 95.7197C49.3861 95.7011 49.5531 95.1961 49.8658 95.0454C50.1643 94.904 51.4076 94.6595 51.5356 94.5948C51.6166 94.5512 51.4063 94.3158 51.6531 94.1939C51.8792 94.0832 52.1855 94.3729 52.3152 94.3105C52.6157 94.1649 52.8097 93.6772 53.1207 93.5075C54.0146 93.0188 54.1695 93.4922 54.23 93.4779C54.3965 93.436 54.2724 92.9917 54.3173 92.9564C54.5082 92.8084 54.9766 92.4539 55.1516 92.3357C55.3693 92.1892 55.6427 92.5231 55.8845 92.3903C56.0646 92.2884 56.2528 91.7016 56.6508 91.4495C57.5478 90.8801 58.5996 90.1711 59.4934 89.6472C59.7595 89.491 59.9727 89.8146 60.0581 89.7745C60.5056 89.5632 60.5455 89.0269 60.6674 88.9568C61.5332 88.4694 63.3819 88.0957 64.185 87.6268C64.5147 87.4383 65.741 86.2265 66.5364 85.7279C66.6264 85.6735 66.6953 85.9927 66.7688 85.8851C66.9451 85.6204 66.6162 85.0979 66.7401 85.0283C66.802 84.9975 67.1067 85.2072 67.2884 85.1189C68.2296 84.6602 68.6595 83.9968 69.0564 83.7181C72.7919 81.1057 76.3451 78.109 78.9791 75.0156C79.2618 74.6843 79.3743 73.9781 80.0286 73.6865C80.1757 73.7999 80.3246 73.9138 80.472 74.0267C80.3543 73.8804 80.2354 73.7344 80.1171 73.5887C80.5008 72.9086 80.4814 72.532 81.0754 72.0653C81.1261 72.0247 81.8878 72.3957 81.1483 71.6169C82.142 71.4666 81.3318 71.3243 81.5605 70.8188C81.7848 70.3135 82.2173 70.0142 82.4991 69.5881C82.9461 69.5403 83.0795 71.0983 83.0228 71.1769C82.9538 71.2896 82.4701 71.0963 82.3846 71.1865C82.1321 71.4535 82.2564 72.0226 81.8495 71.8013C81.9643 72.5301 82.1054 71.8578 82.4164 72.1889C82.0964 72.3541 81.7635 72.5244 81.4431 72.6702C82.5016 73.8126 79.9485 73.9713 80.8554 74.6642C80.597 74.6222 80.339 74.5801 80.0817 74.5337C80.6954 76.0954 79.7277 75.6668 78.8705 75.9998C79.0382 76.0907 79.2076 76.1817 79.3761 76.2714C79.4171 76.3476 79.1025 77.1523 78.7531 76.3519C78.9189 77.742 77.7889 76.3924 78.116 77.8966C77.9176 78.3433 77.6241 77.5888 77.106 78.1441C76.7983 78.4719 76.6387 79.1778 76.2817 79.562C76.1982 79.648 75.8988 79.343 75.8224 79.416C75.7461 79.4896 75.9642 79.8615 75.8764 79.9598C75.6958 80.1635 75.2641 80.1659 75.1567 80.3031C75.0599 80.426 75.13 80.8659 74.8991 81.1544C74.0885 82.1608 74.0556 81.4709 73.8052 81.4541C73.5374 81.4388 73.8219 82.1156 73.4488 82.3291C73.4103 82.3463 73.2485 81.9178 73.1524 82.0225C73.0756 82.1082 73.2994 82.5374 73.0601 82.8548C72.9573 82.9993 71.2394 84.5286 70.9509 84.7539C70.5339 85.0992 69.3328 85.5031 68.8958 85.827C68.7237 85.9544 68.7345 86.4238 68.5478 86.558C67.9289 86.9998 66.9052 87.6855 66.0846 88.2225C65.3578 88.7014 63.6757 88.7908 63.6282 89.735C62.6363 90.4922 62.0816 90.0654 61.9972 90.1029C61.7748 90.2134 61.8729 90.6671 61.6133 90.8523C58.2371 93.2643 53.3577 95.6191 49.8773 97.4094C41.8443 101.574 19.3643 111.27 10.7725 114.258C10.8076 114.454 10.8434 114.651 10.8784 114.848C11.9211 114.598 13.2439 114.465 14.2372 114.167C15.6279 113.746 31.3687 106.339 32.7835 107.209C32.4198 107.483 31.6168 107.252 31.8445 107.901C32.5588 107.67 33.3118 107.419 34.0245 107.181C33.902 106.887 33.7795 106.593 33.6571 106.3C34.3438 105.92 35.1102 105.678 35.8342 105.326C35.9593 105.264 35.7753 105.032 35.8859 104.983C36.0099 104.93 36.0217 105.236 36.0456 105.233C36.3634 105.102 36.3632 104.784 36.4032 104.771C36.5068 104.74 36.5229 105.04 36.8374 104.993C37.4114 104.909 37.5223 104.044 37.8202 105.277C37.9873 105.205 38.1559 105.134 38.3238 105.061C38.2531 104.721 38.1812 104.381 38.1103 104.041C39.6077 104.891 39.2717 102.405 40.505 103.95C40.597 103.59 40.6839 103.232 40.7673 102.875C40.9892 103.148 41.2117 103.422 41.4346 103.695C41.3539 103.411 41.2735 103.125 41.1927 102.842C42.27 102.595 43.2263 101.775 44.211 101.353C44.883 101.065 45.0832 101.099 45.6642 100.799C46.9589 100.126 45.8642 101.291 47.1887 101.347C47 101.042 46.8112 100.735 46.6229 100.429C46.7557 100.22 46.8895 100.009 47.0219 99.7997C47.2555 100.01 47.4886 100.222 47.7232 100.432C47.7232 98.7511 48.5335 99.71 48.6101 99.6722C48.6688 99.6327 48.5388 98.6954 49.4802 99.082C48.7387 98.0663 49.9696 98.822 50.0387 98.7992C50.0994 98.7747 50.742 98.1397 51.0501 97.9937C51.2916 97.8799 51.909 97.8611 52.2551 97.6656C52.5621 97.4921 52.3642 97.1187 52.3852 97.1029C52.7533 96.8705 52.6436 97.2983 52.9267 97.1673C53.21 97.036 53.2822 96.5928 53.3545 96.5907C53.3912 96.5947 53.4473 97.0014 53.5981 96.966C54.0089 96.8646 54.5383 96.1918 54.9623 95.9713C55.1124 95.8931 55.4357 96.0923 55.6062 96.0113C55.8669 95.8844 55.8046 95.4149 55.9571 95.3454C56.0113 95.3234 56.6208 95.7655 56.9833 95.4421C57.0529 95.3789 56.6727 93.9386 57.8313 95.6285C57.7339 95.3539 57.6361 95.0783 57.5384 94.8038C58.5864 93.3874 59.9605 95.2758 59.6637 93.0496C60.7363 92.6796 60.423 93.8037 60.5832 93.8524C60.6868 93.8815 60.908 93.4899 60.9483 93.4803C61.0209 93.4666 61.1242 93.7049 61.1911 93.6628C62.4087 92.8674 61.6406 92.7624 61.8919 92.2463C62.4787 91.0194 63.9365 92.0317 62.1128 92.5905C62.1771 92.7193 62.2416 92.848 62.3059 92.9768C62.6422 92.6096 63.6683 92.0402 63.6692 92.9005C63.674 93.5858 61.0862 94.732 62.8172 94.6191C63.2111 94.5913 63.1279 94.0089 64.1239 94.5806C64.5033 94.4049 63.9535 93.2043 64.6751 93.3664C64.3855 93.0088 64.0958 92.6501 63.8075 92.2915C64.1835 91.347 65.3496 91.5414 65.7197 90.9887C65.846 90.793 65.3992 88.4869 66.3003 90.4954C66.5101 90.1949 68.0146 89.6477 68.1603 89.3036C68.1941 89.2196 67.7027 88.1618 68.727 87.9228C68.8567 88.0072 68.9882 88.0907 69.1181 88.1748C68.5735 89.0864 70.1252 88.4929 70.3179 89.7054C69.9442 89.3701 69.1889 89.5416 68.966 89.3954C68.5867 89.1418 68.8064 88.3126 68.251 88.8895C68.7597 90.7749 69.4868 89.2247 70.1838 90.8627C70.6144 89.5532 71.0834 90.1621 71.2899 90.0514C72.1516 89.5767 72.5843 89.0186 73.4384 88.6081C73.4315 88.1655 71.7984 88.7766 71.7039 89.0346C71.6697 87.4784 70.575 88.2362 70.5131 89.209C70.2801 88.906 70.0459 88.6027 69.8136 88.299C70.4964 88.0559 71.1258 87.7189 71.5352 87.0102C71.6475 87.1034 71.7605 87.1956 71.8731 87.2886C71.858 87.5714 71.8415 87.8553 71.8237 88.1391C72.492 88.0699 71.6157 87.3429 72.769 87.6787C72.5599 87.2981 72.3517 86.9168 72.142 86.5366C72.8194 86.187 73.4824 85.8351 74.1473 85.468C73.9868 84.4928 75.274 83.8065 75.7058 84.8954C76.2021 84.567 75.3091 84.5628 75.573 83.9743C75.6881 83.719 76.0175 83.3841 76.2773 83.5495C76.8584 84.4431 76.4016 85.0249 76.6514 85.7667C76.9036 85.8839 78.9278 82.9957 79.4552 84.1658C79.7426 84.0922 79.2673 83.673 79.5171 83.2024C80.1945 81.921 82.4923 81.2694 82.1443 79.2777C80.7318 79.594 81.0803 80.562 80.4184 81.3182C80.0495 81.7918 77.3415 84.5828 77.297 83.0857C77.2768 83.2973 77.2637 83.504 77.2464 83.7117C76.9481 83.5366 76.6505 83.3587 76.354 83.1808C76.6115 82.8829 76.8651 82.5825 77.1278 82.2701C77.3953 82.4709 77.6631 82.6723 77.9322 82.8711C77.8216 82.6518 77.7106 82.4306 77.5992 82.212C77.6911 82.06 77.7839 81.9096 77.8737 81.7578C78.0135 82.0148 78.1531 82.272 78.2918 82.5298C78.5074 82.3889 78.7213 82.2464 78.9339 82.1037C78.6506 81.8544 78.3663 81.6047 78.0845 81.3535C78.8685 80.4414 78.7283 80.9134 79.6375 80.9899C80.0206 80.6918 78.9875 80.7296 79.5843 79.8352C80.2777 78.7731 80.5004 80.2398 81.3884 78.8634C81.277 78.7078 81.1643 78.5532 81.0526 78.3979C81.403 78.2771 81.752 78.1523 82.0987 78.0238C81.9092 77.8905 81.7196 77.756 81.5309 77.6216C82.0373 77.1566 82.3383 76.0503 83.1292 76.4953C82.3775 76.7676 83.5019 77.8836 83.8327 77.9325C84.6085 78.0809 87.4774 72.6984 87.8053 71.5138C88.372 70.1622 89.2286 69.2398 88.9 67.6641C88.144 68.3336 87.4169 71.4665 86.7304 71.7754C86.6658 71.8093 85.4894 71.0064 86.6497 72.2319C85.8742 73.149 85.4818 74.6981 84.5607 75.9355C84.2761 75.6205 83.9898 75.3064 83.7032 74.9941C84.8931 74.8212 83.8527 72.8468 85.0395 73.9609C85.1371 73.8035 85.2335 73.6465 85.3275 73.4889C85.1082 73.3207 84.8882 73.1517 84.6689 72.9835C84.8067 72.7523 84.9413 72.5207 85.0707 72.2895C85.2941 72.4508 85.5188 72.6117 85.7422 72.7731C85.853 72.5752 85.9617 72.3775 86.0671 72.1785C85.8526 72.0022 85.6365 71.8262 85.4212 71.6512C86.2529 71.34 85.8306 68.5337 86.8499 70.2332C86.9758 69.9425 87.0958 69.6508 87.2085 69.3599C87.0316 69.2711 86.8545 69.1827 86.6777 69.0938C86.7006 68.9616 86.7249 68.8202 86.7467 68.6844C86.8926 68.8036 87.0398 68.9233 87.1846 69.0449C87.1136 68.3265 88.1555 68.1277 87.7003 67.5034C87.5004 67.7112 87.2953 67.9128 87.0885 68.1095C87.4922 67.7223 87.242 66.6444 87.2543 66.5742C87.3122 66.3384 87.7173 66.3321 87.7964 66.0659C87.8641 65.8278 87.5662 65.7781 87.5858 65.7364C88.123 64.5401 89.6282 65.3099 87.8227 64.3383C88.0896 64.3208 88.3567 64.3009 88.6237 64.2763C88.4175 64.1502 88.209 64.0277 88.0006 63.9094C88.0592 63.5268 88.1078 63.1433 88.1412 62.757C87.8102 62.8651 87.4757 62.9652 87.1427 63.055C87.0254 62.5126 87.6743 62.2834 87.6934 62.2248C87.7316 62.0715 87.3277 61.996 87.3186 61.9501C87.2484 59.6852 87.6904 61.102 89.0975 59.684C88.4369 59.3301 87.8983 59.8759 87.2932 60.009C87.5065 59.4363 87.3098 59.2904 87.2305 58.7143C87.2103 58.5643 87.4967 58.3184 87.4785 58.2192C87.4606 58.1297 87.0621 57.9743 87.0131 57.7926C86.9311 57.4843 87.0133 56.9954 86.8636 56.5549C86.7821 56.3147 86.4842 55.7866 86.1737 55.2293C86.0024 54.913 85.835 54.5962 85.7112 54.3121C85.5577 53.9581 85.8564 53.8971 85.8182 53.8053C85.8012 53.7666 85.3651 53.6651 85.2624 53.4471C84.447 51.6783 83.6868 49.7715 82.6016 48.1103C81.8676 46.9826 80.8096 46.0423 80.0033 45.0394C79.8263 44.8186 80.1078 44.732 80.0347 44.6296C80.0075 44.595 79.6513 44.9041 79.4909 44.4342C79.433 44.2646 79.7745 44.1509 79.6814 44.0216C79.6355 43.9595 79.3358 44.2457 78.9791 44.0007C78.3336 43.5632 78.3867 42.8399 78.3196 42.7956C78.2028 42.7285 78.0178 43.0343 77.8837 42.9224C77.2227 42.3739 76.6756 41.9756 76.0732 41.5269C75.8016 41.2873 73.8402 39.9912 73.7328 39.88C73.5472 39.5958 74.1031 39.0652 73.7647 38.887C73.5925 39.0027 73.4221 39.1207 73.2533 39.2401C73.3372 39.4564 73.4181 39.6741 73.4965 39.8911C73.2096 39.4311 72.6306 39.4881 72.3382 39.3142C72.2867 39.2811 71.9065 38.6943 71.6287 38.5993C71.7904 38.5224 71.9546 38.4471 72.1191 38.3738C72.1238 38.2406 72.1297 38.1054 72.1333 37.972C71.5293 37.8677 70.9662 37.5996 70.4038 37.3329C70.2041 37.2381 70.3602 36.9867 70.1551 36.8909C68.9301 36.3456 68.9824 37.6722 68.2942 35.0102C68.6711 35.3339 70.2595 35.6008 70.4566 35.7755C70.6022 35.8903 70.5736 37.9918 70.9812 35.9985C72.1796 36.544 70.7878 37.1105 71.9459 37.3979C72.0099 37.1598 72.0741 36.9204 72.1371 36.6819C72.5731 36.7259 72.906 36.7632 72.9733 37.2823C73.5055 36.2324 74.5296 37.5929 75.2376 37.981C76.2709 38.525 77.507 39.1144 78.4353 39.8632C78.7572 40.1224 78.6717 40.6485 78.7101 40.6813C78.77 40.7263 79.1524 40.5576 79.2672 40.6596C79.7229 41.0569 80.4592 42.7712 81.4689 42.3176C79.1658 39.706 76.4694 37.5396 73.5225 35.9582C73.6791 36.6217 70.6944 35.2358 70.5287 35.1937C70.3948 35.112 70.6241 34.7898 70.5908 34.7476C70.3147 34.4578 69.883 34.9008 69.7832 34.864C69.7061 34.8337 69.6195 34.5192 69.3364 34.427C69.2844 34.4135 69.2008 34.6792 69.1461 34.6614C68.7822 34.5371 68.4223 34.4175 68.0547 34.3095C68.0337 34.2925 68.027 33.8712 67.9343 33.8416C67.8398 33.8142 67.6625 34.1911 67.639 34.1859C67.3494 34.0999 66.8855 33.7038 66.5995 33.6319C66.5004 33.6082 66.515 33.9238 66.4052 33.8947C66.0694 33.8081 66.2747 33.2473 65.8266 33.3061C65.6767 33.3276 65.6192 33.777 65.3594 33.6644C65.1752 33.5845 65.3028 32.7871 65.2765 32.7494C65.235 32.7036 64.4827 33.2158 64.3218 32.6541C64.9686 31.3398 63.7916 32.4954 63.7898 33.0965C63.5388 32.9089 63.2844 32.7233 63.0279 32.5414C62.9239 32.6798 62.8206 32.8195 62.7183 32.9587C61.6768 32.1634 60.9928 32.5208 59.9191 32.2705C59.8681 32.2556 58.9606 31.9022 58.9971 31.6931C59.5409 31.3346 60.104 31.3392 60.4404 32.0298C61.0546 30.7792 61.0358 31.7944 61.9743 31.7042C62.2899 31.6753 62.3346 31.3325 62.3712 31.3315C63.607 31.2678 65.6257 31.4674 66.2637 32.6596C66.5342 32.4392 65.737 32.1523 66.085 32.022C66.2955 31.8808 70.5116 32.8068 68.9197 33.5338C69.0612 33.5458 69.2041 33.5602 69.346 33.5745C69.7474 32.5577 70.3701 33.0465 70.0002 34.0661C70.1209 33.8743 70.2435 33.6826 70.3666 33.4922C70.5419 33.3579 70.7197 33.318 70.9446 33.343C71.8729 33.3342 76.2548 36.1537 76.5091 36.277C76.6313 36.057 76.7534 35.8359 76.8759 35.6161C75.0152 34.0212 72.8037 33.574 70.6506 31.9863C70.6547 32.2447 70.6568 32.5029 70.6581 32.7608C69.8294 32.0858 68.9455 31.4435 68.0457 30.8465C69.1503 30.682 70.9213 30.8867 71.8782 31.6787C72.0484 31.8182 71.8104 32.0836 71.8416 32.1405C71.9224 32.2855 72.219 31.7795 72.6457 31.906C73.0783 32.0299 73.9307 32.9018 74.024 32.9418C74.2053 33.0064 74.9287 32.6438 75.2306 32.8211C75.6202 33.052 75.2002 33.2763 75.2705 33.3298C75.5725 33.5463 75.941 33.5325 76.1779 33.7112C76.5361 33.9772 76.9568 35.0991 77.6991 34.3511C77.4592 34.1293 77.2175 33.9103 76.9729 33.6971C78.6092 34.3114 78.9814 36.2528 80.8132 36.506C81.8224 35.7379 80.6246 34.9163 81.8596 35.29C81.6794 35.1542 81.4975 35.0194 81.3164 34.8887C81.1312 35.073 80.9482 35.2597 80.7647 35.4457C80.5837 35.0496 80.3728 34.6372 80.1666 34.2379C80.1316 34.5068 80.0948 34.775 80.0559 35.0423C78.8978 34.3346 77.7193 33.832 77.88 32.4287C77.7182 32.6881 77.5572 32.948 77.3967 33.2082C76.5121 32.1741 74.3955 32.5348 75.3473 31.095C75.2605 31.1522 75.1737 31.2124 75.0876 31.2703C74.5521 30.5968 74.5766 31.4091 74.3014 31.361C74.228 31.3414 73.0588 30.3898 73.804 30.1694C72.6289 29.208 72.5247 30.9487 72.1565 30.8674C71.5768 29.7466 69.7696 30.4088 70.7202 29.3862C70.6075 29.2962 70.4925 29.2078 70.3788 29.1192C69.7285 29.9597 69.5993 28.7269 69.2211 28.2177C69.0726 28.1506 68.9231 28.0831 68.7742 28.0182C68.6034 28.3233 68.4335 28.6294 68.2665 28.9366C67.1084 26.9703 66.8485 31.4769 66.7824 27.6397C66.9197 27.4415 67.0573 27.2432 67.1978 27.0467C67.464 26.9981 67.7335 26.9534 68.0037 26.9115C67.0062 26.5627 66.0066 26.2609 64.993 25.9979C63.7955 24.7508 62.956 25.7958 61.5595 24.8541C61.4205 24.944 61.2827 25.0352 61.1455 25.1266C61.3077 24.2854 61.8407 24.4411 60.8592 23.9993C60.7894 23.3933 61.472 23.3556 61.7603 23.8413C61.828 23.959 61.1871 24.372 61.8851 24.4418C62.3638 24.4955 61.5249 23.6889 62.959 24.0955C62.9148 23.9434 62.8708 23.7909 62.8258 23.6389C62.984 23.6592 63.1429 23.6807 63.3015 23.7029C63.4187 24.0575 63.5339 24.4133 63.6456 24.7688C64.0376 24.3252 64.3025 23.6631 65.1195 23.9368C64.8742 24.1146 65.1065 24.8333 65.51 24.8908C65.5386 24.6478 65.567 24.4048 65.5956 24.1618C66.614 24.1833 66.1721 24.8316 67.0736 24.4443C67.1274 24.654 67.1803 24.8637 67.232 25.0735C67.791 24.3639 69.5862 24.2686 69.0464 25.3676C69.7311 24.3444 70.6272 25.1589 70.7597 26.1799C70.8435 25.9541 70.9282 25.7288 71.0129 25.5034C71.217 25.519 71.4218 25.5366 71.6273 25.5563C71.6987 25.7349 71.7705 25.9142 71.8395 26.0932C72.0113 26.0002 72.1852 25.9068 72.3597 25.8166C72.377 26.0796 72.3913 26.3434 72.4057 26.606C72.699 26.4086 72.9984 26.2165 73.3005 26.0274C73.3785 26.2651 73.4551 26.5029 73.5293 26.7409C73.6911 26.2603 75.0547 26.7358 75.2967 27.2234C75.4537 27.1379 75.613 27.0523 75.7723 26.9692C75.7421 27.2183 75.709 27.4668 75.6768 27.7153C75.8234 27.5764 75.9715 27.4376 76.1203 27.3006C76.2367 27.5718 76.3515 27.8445 76.4623 28.1168C77.6491 27.4389 77.2889 28.408 77.4527 28.4906C77.7615 28.6432 79.115 28.6256 79.2829 28.7791C79.443 28.9254 79.3452 29.3507 79.4673 29.4769C81.428 31.5915 81.0159 30.0042 81.5625 30.1742C81.8548 30.2743 81.8328 30.7355 82.0664 30.8639C82.4827 31.0725 84.5259 32.1653 84.5955 32.3171C84.6926 32.5096 83.3236 33.6554 84.0483 33.7022C84.6311 32.935 85.0365 34.6561 85.3829 33.1465C85.7307 33.6445 86.0402 34.1235 86.3521 34.6192C87.0277 33.7029 87.0473 34.7662 87.5961 35.2919C88.4078 36.0429 90.41 37.4252 89.5292 38.1599C89.8751 38.1845 90.224 38.2157 90.5735 38.2527C91.3571 39.9317 92.5798 41.1417 93.4736 42.6617C94.7948 44.9083 95.9171 47.3436 96.87 49.9037C97.9965 52.8824 98.6908 56.0114 98.9096 59.1631C98.9293 59.4641 98.5678 59.4569 98.5793 59.6698C98.6752 60.7978 98.9641 63.8095 98.6967 65.3739C98.6228 65.8775 98.2446 66.0607 98.2098 66.2136C98.0865 66.7312 98.5539 66.6959 98.5067 66.9399C98.4442 67.3361 97.6441 69.2492 97.4237 69.8688C97.3226 70.1839 97.5703 70.6949 97.3547 71.0332C97.3302 71.0567 97.0022 70.8694 96.9822 70.8895C96.7425 71.5474 97.1676 71.2641 97.0838 71.4866C96.4711 73.088 95.8282 74.7166 95.0228 76.2316C94.8222 76.611 94.2986 77.0451 94.1082 77.351C94.0365 77.4679 94.3976 77.4201 94.1549 77.8265C94.0729 77.9598 93.7303 77.7865 93.6254 77.9248C93.1783 78.5198 94.048 79.5006 92.9101 79.4526C92.3181 80.5914 91.3605 82.5676 90.7043 83.4424C90.5491 83.6522 90.3037 83.5936 90.1568 83.7927C90.0537 83.9348 90.1193 84.4321 89.9513 84.6518C89.7835 84.8698 89.2646 84.9711 88.959 85.3598C88.6325 85.7757 88.3419 86.4256 88.2603 86.5192C88.165 86.6288 87.8257 86.355 87.7341 86.4663C87.4598 86.8039 86.955 87.9986 86.5903 88.4478C86.2165 88.9141 85.8362 88.9981 85.699 89.1445C85.5742 89.281 85.6526 89.7218 85.5951 89.7863C85.5051 89.8846 85.2119 89.5665 85.0959 89.6872C84.9072 89.8851 84.8751 90.2993 84.5837 90.5918C79.333 95.8257 73.6406 99.5477 67.9228 102.751C67.2873 103.104 67.0747 103.603 66.0891 104.032C65.6889 104.205 65.6452 103.696 65.392 103.949C65.2796 104.062 65.4678 104.368 65.3107 104.482C64.6125 104.984 63.6253 105.169 63.3118 105.356C63.1881 105.43 63.2187 105.886 62.964 106.038C61.0644 107.177 58.7259 108.313 56.6692 109.457C55.5716 110.07 53.9745 111.113 52.709 111.762C49.1886 113.574 45.3454 115.212 42.0778 116.657C37.1522 118.835 18.2963 126.997 13.1087 128.391C15.7172 128.52 32.9952 121.351 35.6021 120.43C43.2232 117.739 50.8769 113.694 58.3394 109.783C60.938 108.425 64.1732 106.593 67.0767 105.096C67.2082 105.028 67.3313 104.586 67.6186 104.448C67.6798 104.42 68.6582 104.491 68.9035 104.344C68.215 103.574 69.5625 103.797 69.854 103.583C70.2125 103.317 70.749 102.367 71.7419 102.053C72.6379 101.767 72.6168 102.248 72.6703 102.247C73.0219 102.202 72.8166 101.582 72.995 101.383C73.7495 100.602 78.3137 97.7397 79.5322 96.745C79.8444 96.5031 80.0686 96.8273 80.1406 96.7758C80.3277 96.6284 80.3768 96.0847 80.6706 95.8461C81.2103 95.4101 82.0449 95.1901 82.3401 94.9376C83.0604 94.3268 84.077 92.8283 84.989 91.9413C85.2398 91.6981 85.4752 92.0387 85.5888 91.9273C86.0986 91.4317 87.0525 89.7859 87.6551 89.1257C88.6471 88.0541 89.7963 87.1366 90.6535 85.8539C90.8418 85.9062 91.0308 85.96 91.2199 86.0104C91.1833 85.7527 91.1437 85.4944 91.104 85.2384C92.8031 83.2876 94.0542 80.6975 95.3669 78.2305C95.5312 77.9432 96.5441 76.6185 96.6558 76.351C96.7523 76.1356 96.4663 75.7079 96.6566 75.422C96.9212 75.0175 97.4738 75.838 97.5688 74.9752C97.5916 74.7434 97.205 74.7771 97.2634 74.3229C97.3136 74.168 98.092 71.3777 98.1297 71.2206C98.2382 70.9855 99.0034 71.0083 99.0367 70.9447C99.2072 70.621 98.663 70.4496 98.671 70.2016C98.6934 69.4752 99.2464 68.6358 99.2601 68.5126C99.4548 67.0554 99.2891 64.296 99.5434 62.7636C99.5833 62.5515 100.004 62.588 100.017 62.5501C100.103 62.3038 99.6254 62.1423 99.6095 61.9116C99.547 60.6522 99.7007 58.6906 99.5763 57.4276C99.5629 57.2817 99.2884 57.021 99.265 56.7638C99.1228 55.302 99.5563 55.6747 99.5594 55.5906C99.5558 55.3852 99.0881 55.133 98.9426 54.6414C98.5953 53.4141 97.895 51.0451 97.3799 49.7418C97.3701 49.7157 97.3611 49.6901 97.3523 49.6651C97.0912 48.9037 97.4891 48.7085 97.4779 48.6517C97.445 48.5309 96.979 48.3908 96.7137 47.8957C96.1989 46.9475 96.5685 46.8813 96.3684 46.4865C96.3525 46.4534 96.064 46.6911 95.8231 46.2724C95.3805 45.4881 94.6414 43.2935 94.1137 42.4332C93.9104 42.0931 93.5818 42.2284 93.367 41.8791C93.0228 41.3109 92.5261 39.8226 92.4572 39.7277C92.4306 39.7066 92.0825 39.8987 91.9781 39.745C91.8628 39.5717 91.9083 39.2651 91.8199 39.137C91.3355 38.4227 89.8475 37.6296 91.1898 36.9755C90.7462 36.9872 90.3041 37.0076 89.8668 37.0367C88.7902 35.5313 87.4329 34.2127 86.0962 32.9975C85.7852 32.7133 85.701 32.243 85.4327 32.0097C85.1635 31.7656 83.7364 31.1352 83.5376 30.991C83.1877 30.6863 81.0945 29.1612 80.8416 28.9719C80.3638 28.5595 80.128 27.6542 79.8551 27.626C79.6369 27.6059 79.6386 28.0273 79.2656 27.9135C78.6249 27.7151 77.8405 26.7431 77.6468 26.648C77.5688 26.6103 77.602 26.9398 76.8775 26.5801C76.4884 26.3898 76.3899 25.9981 76.2475 25.9285C76.2028 25.9101 76.0912 26.4044 75.3488 25.98C74.8413 25.6922 74.7246 25.2242 74.6688 25.1929C74.5833 25.153 74.2469 25.4597 73.911 25.3049C73.1306 24.9339 71.7818 23.9388 71.0068 23.6641C70.8586 23.6113 70.7951 24.1153 70.2149 23.8938C69.7998 23.7375 69.9539 23.3651 69.7975 23.304C69.549 23.2106 69.0739 23.5918 68.5223 23.4396C67.8333 23.1532 62.6953 21.8362 62.4186 21.7534C62.2423 21.6472 62.0333 21.6251 61.9532 21.3967C62.0394 21.1904 62.1255 20.9838 62.2135 20.7781C62.9813 21.5934 62.7023 20.7163 62.9216 20.6811C63.24 20.6295 64.4176 20.8802 64.7209 20.7367C64.8296 20.6826 64.6348 20.1952 65.2154 20.0459C65.844 19.8909 66.0161 20.7383 66.3903 19.6883C67.0973 21.0534 68.0944 19.9467 67.1432 19.4014C66.5966 19.0101 61.1227 17.9174 60.0179 17.9015C59.1169 17.8099 57.4544 18.1344 56.3795 18.0958C55.7498 18.0618 54.1904 18.1102 54.212 17.5224C53.6468 17.4924 54.2845 18.0318 54.1734 18.1224C53.9409 18.3033 52.1923 18.068 51.8623 18.1295C50.2669 18.3924 48.4137 19.3619 46.7758 18.9445C46.8181 18.7756 46.8616 18.606 46.9051 18.4371C47.2065 18.0769 48.8459 18.1985 48.9212 17.4255C46.5735 17.8162 44.2626 18.3387 42.0083 18.9648C42.191 19.5648 39.4277 20.3808 39.2409 20.1527C39.2067 19.8381 39.1739 19.5224 39.141 19.2075C40.9946 19.8563 40.493 18.3905 41.7356 18.8927C42.17 18.783 41.9242 18.3214 42.1183 18.1669C44.0642 16.6502 42.3877 19.1749 43.9194 18.3111C43.2652 17.706 44.573 17.1009 45.1772 16.8731C45.3027 16.8171 47.1888 16.6188 47.4249 16.5702C48.632 16.2665 50.7799 15.5285 52.1129 15.8017C53.1351 15.7407 53.6335 15.1643 54.5715 14.9758C55.2834 14.8369 55.1048 15.2243 55.4417 15.2104C56.1394 15.1861 56.3327 14.043 56.851 15.616C57.3233 15.4059 57.8048 15.2021 58.2935 15.005C58.2976 15.2507 58.3029 15.4965 58.3071 15.7422C58.6086 15.7425 58.9127 15.7461 59.2173 15.7517C59.3062 15.5082 59.3954 15.264 59.4865 15.0209C60.4681 15.3847 60.0491 15.9687 60.2227 16.6715C60.4301 16.7273 60.6388 16.7848 60.8465 16.8432C61.02 16.3164 61.2028 15.79 61.3834 15.2652C62.333 15.3668 63.2936 15.4971 64.2638 15.658C64.3079 15.9095 64.3514 16.1608 64.3932 16.4122C64.415 16.1687 64.436 15.925 64.4578 15.6815C66.0981 15.8355 67.7806 16.0812 69.4648 16.4317C69.9788 16.1392 67.3238 15.2549 67.1157 15.2151C65.9755 14.8479 62.9744 14.897 63.0197 14.0416C62.2795 14.6155 60.2358 14.3365 59.5909 13.5478C60.569 13.6198 61.5614 13.7199 62.5497 13.8492C62.5316 13.5543 62.5121 13.2594 62.4932 12.9645C63.6906 14.2542 63.8483 14.2031 65.2489 13.2635C65.2147 13.6539 65.1817 14.0446 65.1475 14.435C66.1859 13.1959 67.5313 15.7826 67.7928 14.1303C68.2618 14.3593 68.7311 14.5955 69.1977 14.8401C70.2877 14.9129 68.8497 13.1227 72.9801 14.8414C73.263 14.9684 73.1062 15.3603 73.5484 15.4746C73.6756 15.508 74.5571 15.138 75.9212 15.7341C76.1347 15.8286 76.0487 16.1886 76.2577 16.3224C76.7372 16.6283 77.9866 16.3899 77.1554 17.308C79.048 18.5284 78.5322 17.2536 79.2932 17.1882C79.8015 17.1557 79.4728 17.7634 79.8873 17.7989C80.4007 17.852 80.3459 17.0017 82.0127 18.2988C81.7971 18.2298 81.5758 18.1591 81.3561 18.0919C81.3836 18.3222 81.4091 18.5531 81.4342 18.7831C82.6147 18.934 82.2432 19.4904 83.1623 18.8097C83.6886 19.6831 84.2937 20.1128 85.3003 20.7064C87.2145 21.8794 86.8893 20.2108 88.1575 23.1505C88.6036 23.2434 89.036 23.3326 89.4787 23.4375C89.7529 24.2676 89.0162 24.3512 89.7166 25.133C89.7526 23.6848 91.1426 25.4989 92.0098 25.011C91.897 25.2234 91.7838 25.4353 91.6702 25.647C91.8432 25.8174 92.0018 25.9757 92.1653 26.1414C92.2817 25.9964 92.3981 25.8498 92.5145 25.7048C92.6466 26.0358 92.7761 26.3692 92.902 26.7019C93.1807 26.7296 93.4609 26.7601 93.7417 26.7947C93.7558 27.3768 93.7612 27.9572 93.7589 28.5341C93.9016 28.735 94.0433 28.9399 94.1838 29.1434C94.3199 28.8828 94.4548 28.6198 94.589 28.3575C94.7328 28.6626 94.8837 28.9809 95.0124 29.2768C95.0931 28.6795 95.6002 28.4563 96.2046 29.2187C96.6972 29.8533 95.4828 29.8031 96.8102 30.8829C96.9006 30.9629 97.5213 30.651 98.5719 31.9412C99.7666 33.4381 98.8641 32.9848 99.0457 33.2758C99.0808 33.332 99.6622 33.6029 100.001 34.039C100.192 34.2849 100.146 34.7064 100.168 34.7447C100.281 34.9008 100.609 34.7164 100.764 34.9373C101.156 35.5055 101.483 36.4129 101.811 36.9507C101.963 37.1995 102.281 37.3137 102.348 37.4276C102.45 37.6054 102.294 38.0261 102.394 38.2064C102.762 38.8616 104.259 39.3155 103.091 40.4636C104.661 40.3911 103.785 42.5857 104.572 42.0134C104.785 42.8414 105.489 44.0879 106.065 45.327C107.047 47.4783 107.642 49.5977 106.762 49.7854C108.464 50.7365 107.487 50.9521 107.663 51.5316C107.854 52.1974 108.018 51.761 108.141 52.3244C108.43 53.6699 108.563 54.9839 108.752 56.3307C108.507 56.1535 108.261 55.9799 108.014 55.8108C108.151 57.2084 108.588 56.6514 108.848 58.0804C109.265 60.7295 108.748 59.6561 108.213 60.0741C108.781 59.9341 108.784 63.1382 108.675 63.447C108.619 63.6273 107.952 62.782 108.109 64.6815C108.331 64.5965 108.553 64.5067 108.776 64.4175C108.461 65.271 108.62 67.6603 108.484 68.0457C108.426 68.2397 106.569 68.8075 107.79 69.9673C107.558 70.0197 107.326 70.0708 107.094 70.1188C107.186 71.1102 107.24 72.127 107.272 73.104C106.858 73.1213 106.442 73.1343 106.029 73.1414C105.959 73.4148 105.886 73.6865 105.811 73.9565C106.195 73.9009 106.579 73.8411 106.963 73.7735C106.368 75.4483 106.167 77.6939 104.954 77.4915C105.031 77.9286 105.101 78.3713 105.174 78.7964C104.732 78.8235 104.29 78.8414 103.851 78.8535C103.336 80.3427 103.553 80.4919 103.47 81.6847C103.218 81.4796 102.966 81.2746 102.714 81.0711C102.77 81.9947 102.46 83.5158 102.002 84.443C101.779 84.8981 100.998 85.3624 100.969 85.4842C100.951 85.6034 101.703 87.6825 100.459 86.8379C100.058 88.703 99.1405 88.7982 98.787 89.331C98.556 89.6748 98.7137 90.0758 98.4634 90.4787C98.105 91.0557 97.5695 91.4614 97.3521 91.7789C97.229 91.9609 97.4546 92.2458 97.3706 92.3728C96.9665 92.9648 96.9556 92.3994 96.5237 92.9665C96.4855 93.0214 96.4556 93.7404 96.037 94.1455C95.804 94.3739 94.9242 94.6388 94.8701 94.6943C94.6596 94.9424 95.4867 95.502 93.9855 95.4659C94.1301 95.5843 94.2755 95.7027 94.4204 95.8207C93.7887 97.2096 93.1002 96.7026 92.8824 96.8491C92.8564 96.8717 92.8415 97.3528 92.6798 97.4551C92.4055 97.627 92.0346 97.3709 91.9722 97.4056C91.7549 97.5301 91.2791 98.2789 90.6222 98.3167C91.4937 99.2395 90.3323 100.967 89.1856 100.061C89.1142 100.511 89.0385 100.961 88.9606 101.412C88.7119 101.317 88.4629 101.221 88.2155 101.125C88.2859 101.378 88.3575 101.631 88.4267 101.884C87.7677 101.772 87.1108 101.652 86.4591 101.524C86.7324 101.977 87.0068 102.431 87.2795 102.885C87.1445 102.922 87.0086 102.956 86.8737 102.992C86.5611 102.714 86.2473 102.436 85.9365 102.155C85.8554 102.327 85.7744 102.499 85.6923 102.671C85.8283 102.948 85.9641 103.226 86.0996 103.504C85.6119 104.352 84.3987 101.649 84.4967 104.806C84.1689 104.763 83.8405 104.718 83.5141 104.672C83.9065 105.834 83.1078 105.568 82.8327 105.942C82.6385 106.206 82.8914 106.59 82.5634 106.851C82.2355 107.11 82.0209 106.727 81.9925 106.74C81.7138 106.914 81.7115 107.396 81.4761 107.474C81.4406 107.485 81.0993 107.089 80.8336 107.242C80.5683 107.395 80.6995 107.989 80.2725 108.166C80.0539 108.257 79.7765 107.911 79.5874 107.997C78.6943 108.401 78.942 110.951 77.0602 109.016C77.0903 109.405 76.6632 111.113 76.2015 111.334C75.4865 111.674 75.4966 111.042 75.1885 111.129C75.1432 111.144 75.0218 111.43 74.4533 111.757C74.3536 111.815 74.5 112.052 74.4967 112.077C73.8348 112.495 72.4847 113.067 71.7519 113.463C71.6881 113.503 71.713 114.443 70.6618 113.783C70.177 115.033 67.8515 114.355 67.2736 116.105C67.1311 116.215 66.8214 116.051 66.7581 116.099C66.2149 116.509 66.7957 117.216 64.935 116.742C65.2291 117.102 65.0902 117.651 64.6393 117.858C63.9601 118.167 64.0785 117.129 63.5801 117.478C63.6775 117.699 63.7738 117.922 63.8712 118.144C62.3969 118.2 62.568 119.277 61.3499 119.918C60.9094 120.149 60.0527 119.989 59.9445 120.04C59.9047 120.062 59.646 120.849 59.6014 120.876C59.3494 121.022 59.1005 120.847 58.8773 120.957C58.1383 121.323 57.5466 122.462 57.1873 121.103C57.0951 121.472 57.0026 121.84 56.9052 122.212C55.5852 121.22 55.7612 123.388 55.073 122.131C55.0445 122.473 55.0144 122.814 54.9851 123.156C51.6556 124.582 48.2525 125.946 44.9319 127.196C44.9577 127.687 43.4389 128.151 43.339 128.113C42.8914 127.947 42.9192 126.843 42.3029 127.349C42.3699 127.799 42.4369 128.248 42.5036 128.698C41.6845 129.191 41.9595 128.602 41.5234 128.458C41.3995 128.568 41.5549 128.875 41.3718 128.976C40.3322 129.551 38.1918 130.425 37.0255 130.907C36.7886 131.005 36.7249 130.689 36.6509 130.713C36.448 130.795 36.1701 131.336 35.7692 131.49C33.321 132.431 15.587 139.399 12.962 139.946C12.7814 139.984 12.6523 139.622 12.5312 139.643C12.3638 139.676 12.1002 140.092 11.9302 140.118C11.7696 140.142 11.5917 139.897 11.4233 139.919C10.4988 140.066 9.72172 140.844 8.55646 140.322ZM74.7586 16.3456C75.6071 16.8506 76.882 17.7139 76.8862 16.7178C76.2987 16.5229 75.7132 16.3434 75.1304 16.1777C75.0065 16.2333 74.8814 16.2888 74.7586 16.3456ZM69.3667 20.321C69.2751 20.9947 69.7206 21.3658 70.4548 21.0722C70.4639 20.871 70.4726 20.6676 70.481 20.4664C70.0323 20.9392 69.8003 19.8278 68.7199 19.709C68.6634 20.0457 68.6073 20.3846 68.5508 20.7213C68.8195 20.5849 69.0919 20.4513 69.3667 20.321ZM51.1772 14.4066C51.0753 13.8738 51.7975 13.8766 52.2067 13.8452C52.1356 13.7537 52.0644 13.6607 51.9931 13.5694C52.8695 13.5707 54.4939 13.6574 54.492 12.6096C55.1214 12.4396 54.8985 13.3694 55.1091 13.4613C55.1933 13.4976 55.984 12.924 56.6768 13.5525C56.8334 13.5456 56.9904 13.5383 57.1479 13.5326C57.1671 13.1885 57.1859 12.8441 57.2061 12.5C57.4434 12.9135 57.6798 13.3298 57.9109 13.7461C55.5989 13.8333 53.3706 14.0629 51.1772 14.4066ZM65.7154 21.6483C65.8097 21.3411 65.9046 21.0339 66.0011 20.7273C65.7098 20.6542 65.418 20.5813 65.1275 20.5146C65.1517 20.8643 65.1748 21.2166 65.1968 21.5662C65.3689 21.5926 65.5428 21.6195 65.7154 21.6483ZM60.5348 19.3348C60.7946 19.4449 61.0579 19.5578 61.3137 19.672C60.9632 19.7964 60.6095 19.9252 60.2641 20.0575C60.3529 19.8166 60.4437 19.5751 60.5348 19.3348ZM60.294 21.1982C60.1644 21.0563 60.0398 20.7244 60.0806 20.5661C60.5299 18.9271 61.5778 22.6008 60.294 21.1982ZM57.7334 21.2066C57.549 21.036 58.107 19.814 57.0062 19.5243C57.7989 19.4779 58.602 19.4494 59.4025 19.4414C59.0253 19.629 58.6548 19.8189 58.2871 20.0151C58.3592 20.3632 58.4293 20.7129 58.4981 21.0613C58.2449 21.1075 57.9862 21.1563 57.7334 21.2066ZM87.2853 42.474C87.1372 42.2559 86.9738 42.0172 86.8125 41.7902C86.6815 41.9304 86.8661 42.188 86.8395 42.3696L86.7869 42.5083C86.715 42.6394 86.6028 42.7537 86.6387 42.9456C86.8536 42.7875 87.0698 42.6311 87.2853 42.474ZM80.8828 37.778C80.5003 37.8655 80.1219 37.9607 79.749 38.0652C79.9755 38.2637 80.2018 38.467 80.4255 38.6749C80.5793 38.377 80.7314 38.0778 80.8828 37.778ZM54.9376 21.3107C54.8912 21.287 54.6254 20.6076 54.5331 20.4615C54.8632 20.436 55.1955 20.4123 55.5299 20.3929C55.4043 20.1797 55.2775 19.9669 55.1502 19.7546C55.5418 19.6548 55.9307 19.5585 56.3217 19.4677C56.1636 19.6949 56.0061 19.9243 55.8525 20.153C56.1893 20.211 56.5281 20.2705 56.8667 20.335C57.3133 21.2351 55.1558 21.396 54.9376 21.3107ZM79.2207 37.5144C79.6676 36.8981 78.3309 36.0657 78.1732 36.3323C78.0824 36.4818 78.4814 36.7819 78.5027 36.884L78.3945 37.0263C78.3457 37.0973 78.3132 37.1913 78.3839 37.298C78.6613 37.3648 78.9446 37.4389 79.2207 37.5144ZM61.1194 25.8617C61.9257 26.5072 63.1107 26.0058 63.53 26.0832C63.6852 26.1114 63.6823 26.5224 63.805 26.545C64.5076 26.6679 65.3171 25.8734 65.2334 27.22C64.6021 26.7159 63.9097 27.5412 63.8119 27.4553C63.7398 27.3842 63.2578 25.9886 62.5274 27.154C62.0677 26.7152 61.5971 26.2843 61.1194 25.8617ZM77.0115 36.2736C77.0117 36.3674 77.6727 36.8095 77.7288 36.7917C78.4665 36.4898 77.0559 35.5554 77.0115 36.2736ZM59.0908 24.236C59.1419 24.1138 59.193 23.9915 59.2448 23.8695C59.4592 23.9768 61.2061 24.4095 60.8344 24.6621C60.1124 24.4879 59.7122 24.8656 59.0908 24.236ZM56 24.5273C55.8411 24.5087 53.2924 25.1224 53.4382 24.4893C54.3901 23.8275 54.8431 24.6599 54.986 23.2447C55.0581 23.5357 55.1293 23.8271 55.2 24.1184C56.2224 24.5649 56.4306 23.5385 56.9831 23.1448C56.99 23.3673 56.9976 23.5921 57.0046 23.8145C57.3777 23.8257 57.7533 23.8399 58.13 23.8599C58.0737 23.7141 58.0177 23.5674 57.9608 23.4218C58.0942 23.4205 58.2281 23.4193 58.362 23.4192C58.6993 24.0779 59.0983 24.2374 58.622 24.8936C58.0136 24.5521 57.2743 24.9196 56.3116 24.9048L56.3108 24.9007C56.2626 24.8974 56.1559 24.5342 56 24.5273ZM54.1105 21.1749C53.3758 22.4518 53.3211 19.7777 54.2001 20.4874C54.242 20.5325 54.1659 21.0813 54.1105 21.1749ZM71.9047 35.1548C72.3134 35.7899 73.2017 34.1472 72.2394 34.5921C72.2078 34.6099 71.8884 35.1237 71.9047 35.1548ZM64.4903 29.7823C65.2787 29.9156 66.0023 29.6866 66.7665 30.4444C65.8747 30.8092 65.5865 29.8802 64.6966 30.5559L64.4903 29.7823ZM59.2548 25.7885C59.6654 25.7962 60.0789 25.8087 60.4936 25.8284C60.3758 26.1084 60.2602 26.3906 60.1463 26.6716C59.9619 26.6609 59.7766 26.652 59.5929 26.6437C59.4815 26.3586 59.3694 26.0728 59.2548 25.7885ZM33.7009 114.881C34.1232 114.463 35.2612 114.719 35.3527 114.693C35.3845 114.683 35.4732 114.293 35.7929 114.181C36.2423 114.024 36.5005 114.218 36.545 114.208C36.6528 114.165 36.4871 113.906 36.5888 113.864C37.3611 113.561 37.9369 113.229 38.6577 112.923C39.4776 112.576 40.0753 112.936 40.4447 112.1C40.5917 112.301 40.7402 112.504 40.8876 112.705C40.9599 111.534 43.6382 110.486 44.6821 110.07C45.0183 109.937 45.1109 110.365 45.2221 110.315C45.2934 110.282 45.0685 109.772 45.9758 109.477C46.4329 109.328 46.6932 109.653 46.9091 109.538C47.0249 109.474 46.8629 109.108 47.0341 109.028C48.0134 108.571 48.8563 108.318 49.8472 107.923C50.1255 107.812 50.2549 108.122 50.314 108.089C50.5308 107.965 50.713 107.247 51.2741 106.972C52.1956 106.525 54.0356 105.596 54.9009 105.455C55.0278 105.435 55.2797 105.759 55.3585 105.712C55.4767 105.639 55.3618 105.23 55.3802 105.211C55.7881 104.989 55.6971 105.478 55.9351 105.247C56.0624 105.12 56.0292 104.599 56.3507 104.367C56.7749 104.063 56.9124 104.628 57.0793 104.478C57.0958 104.459 56.946 104.094 57.1263 103.982C57.8143 103.562 58.8 102.917 59.4643 102.548C59.655 102.442 59.9083 102.606 60.1761 102.461C60.7214 102.177 63.6734 100.263 63.987 100.24C64.0196 100.247 64.0082 100.923 64.427 100.651C64.4452 100.359 64.4635 100.065 64.4804 99.7725C64.8581 99.9949 65.2361 100.217 65.6159 100.437C65.0158 99.2421 66.1251 98.3109 66.7332 99.5364C66.8905 99.5027 67.0483 99.4678 67.2056 99.4335C67.0525 98.4167 67.3984 98.608 67.6743 97.7728C67.8909 97.9761 68.1074 98.1816 68.3248 98.384C68.2562 98.1997 68.1876 98.015 68.1188 97.8308C68.8897 98.5723 68.8647 97.336 68.9165 97.2945C69.1209 97.1324 69.4091 97.2601 69.5059 97.1853C69.8728 96.9082 70.4961 96.0451 71.0242 95.8835C71.0519 95.884 71.2465 96.2797 71.3977 96.2411C71.6732 96.17 71.374 95.5882 72.0511 96.0436C72.0171 95.8334 71.9853 95.6223 71.9506 95.4124C72.0635 95.4536 72.1766 95.4971 72.2896 95.5379C72.6425 95.2252 72.9917 94.9086 73.3385 94.5928C73.3786 95.4906 73.9849 95.569 74.0528 94.7871C74.0749 94.5223 73.7326 94.2079 73.7386 94.1176C73.7502 94.0021 75.5391 92.9394 75.8037 93.0975C75.8065 92.914 75.8086 92.73 75.8104 92.5468C76.0029 92.7601 76.1979 92.9731 76.3911 93.1859C76.3809 93.0665 76.3692 92.9453 76.3587 92.8261C77.0675 92.914 77.5307 91.0538 77.7779 90.9605C77.9126 90.9113 78.4948 92.0136 78.9463 91.4716C78.7768 91.1783 78.6065 90.8854 78.4366 90.5923C78.5271 90.4532 78.6171 90.3124 78.7064 90.1731C78.9417 90.0127 79.5873 90.2153 79.8253 90.5317C79.7576 90.2768 79.6883 90.0227 79.6191 89.7686C80.2484 90.2477 81.0538 89.1593 81.1382 88.4115C81.391 88.4936 81.6454 88.5754 81.8994 88.655C81.8827 88.2837 81.8615 87.9132 81.8395 87.5442C82.1342 87.1433 82.0547 87.8676 82.1522 87.8281C82.3637 87.7407 82.6585 86.3435 83.2196 87.1694C83.328 87.0648 83.4375 86.96 83.5449 86.8547C83.4224 86.5791 83.2973 86.3046 83.1732 86.0302C83.9712 86.5978 84.0444 86.0412 84.9322 85.6048C84.8417 85.3762 84.7502 85.1476 84.6582 84.9201C85.0627 84.9467 85.469 84.9686 85.8757 84.9858C85.671 84.6639 85.4643 84.3422 85.258 84.0219C85.3061 83.8881 85.3547 83.7532 85.4015 83.6195C86.1252 84.0394 85.8218 83.0332 86.2016 83.106C86.7587 83.2079 86.9998 83.8396 86.6556 84.4152C87.0992 84.8275 88.1481 83.1389 88.4072 82.7191C88.3057 82.6611 88.2049 82.6018 88.1037 82.5434C87.8787 82.9795 87.6427 83.4199 87.4216 83.8306C86.1435 83.0238 87.196 82.3855 87.4189 81.7807C87.4359 81.7202 87.2177 81.0914 87.5948 80.6758C87.7419 80.5184 88.859 80.3818 88.9919 80.2719C90.0495 79.4037 88.5768 79.4888 90.1267 79.0069C89.3614 78.7418 90.3018 78.5007 90.606 77.7002C90.6644 77.5622 90.7369 76.1704 90.7544 76.0923C90.9049 75.6045 91.2161 76.4758 91.4082 75.7379C91.2997 75.5561 91.1906 75.3737 91.0802 75.1944C91.1584 75.0431 91.2355 74.8913 91.3113 74.739C93.1372 74.6633 92.23 73.7863 92.2434 73.3846C92.2496 73.2168 92.5364 73.6009 92.6135 73.198C92.6422 73.0454 92.4006 72.7284 92.5235 72.3545C92.8969 71.1889 94.4126 71.299 93.3259 69.5991C93.5823 69.5068 93.8387 69.4097 94.0946 69.3066C93.8768 69.0967 93.6566 68.8912 93.4353 68.6889C94.3848 68.0312 93.5604 68.1018 93.641 67.7811C93.8734 66.9174 94.2653 65.1148 94.8901 65.0259C93.551 64.0346 95.2001 63.2793 95.1505 62.9186C94.981 62.7166 94.8085 62.5179 94.6347 62.3248C94.8091 62.1068 94.9811 61.8832 95.1496 61.6529C93.7525 61.7793 95.0861 60.5962 95.0909 60.4591C95.1119 60.3041 94.5208 58.5981 94.4011 57.9523C94.3083 57.3082 94.4157 56.0638 94.3889 55.9616C94.3638 55.8474 93.7308 54.9107 93.4688 54.103C93.3768 53.8076 93.1652 52.8713 92.8419 51.909C92.4413 50.671 91.9229 49.4683 91.6591 49.7831C91.6134 50.1062 91.6311 50.5182 91.6867 50.8522C91.7294 51.103 91.8794 51.6178 92.0822 52.2886C92.8556 54.5296 93.4824 58.3742 93.4762 59.6126C93.6482 62.8521 93.3349 66.26 92.3386 69.1822C92.2807 69.3538 91.9292 69.2454 91.8761 69.3868C91.8015 69.6031 91.9612 70.317 91.8757 70.5362C91.5611 71.3604 91.1205 72.2627 90.9295 72.6698C90.5084 73.579 90.0053 74.0774 89.6237 74.7184C89.5138 74.909 89.3325 76.2053 88.7459 76.7672C88.5854 76.8237 88.4236 76.878 88.2628 76.9318C88.3894 76.504 88.6766 75.3966 88.8774 74.9509C89.1797 74.2971 89.618 74.1075 89.7402 73.8555C89.8486 73.642 90.0576 72.3859 90.2496 71.8933C90.3113 71.7401 90.6724 71.8958 90.7259 71.762C91.0084 71.0591 91.3689 70.0138 91.2083 69.2205C91.2519 69.5389 91.9522 67.9316 91.9593 67.8313C91.9957 67.6776 91.6925 67.3962 91.759 67.0797C91.8824 66.4723 92.6088 66.7167 91.999 65.7679C92.2433 65.6225 92.4876 65.4696 92.7289 65.3099C91.7686 65.1509 93.3256 62.7752 92.0683 62.0143C91.981 62.0214 91.4164 65.0884 91.3084 65.3118C90.9996 66.7966 90.6718 69.0147 89.984 70.3099C89.7856 70.718 88.7296 71.6147 88.6938 71.7062C88.6446 71.8602 89.0132 71.9121 88.9956 71.9819C88.6149 73.4245 88.3006 72.389 88.0438 72.4479C87.872 72.4836 87.9913 73.1531 87.9659 73.207C87.9199 73.2952 87.7615 73.1567 87.7163 73.1278C87.4507 73.7085 88.2511 73.5551 88.1419 74.0487C88.1233 74.1373 87.3257 74.9129 87.1061 75.3112C86.7759 75.9304 86.3485 76.4984 86.2136 76.7164C85.9917 77.0789 85.8927 78.0606 85.4735 78.6588C85.3007 78.9041 84.9564 78.7136 84.7807 78.956C83.6933 80.5231 81.5165 83.6784 80.1551 84.6114C79.8204 84.849 79.2213 84.7037 79.0883 84.8861C79.0774 85.1566 79.0652 85.4283 79.0508 85.7001C77.6565 84.6635 78.4355 86.0092 78.1089 86.5159C77.9015 86.8342 77.4818 86.5281 77.4472 86.5604C77.2164 86.7771 77.2368 87.0799 77.0701 87.2765C76.8824 87.4968 76.4438 87.5673 76.3893 87.6665C76.3574 87.7282 76.8892 88.1692 76.0366 88.8587C75.1836 89.5435 74.2894 90.161 73.3722 90.8194C74.7492 92.3476 74.2758 90.9439 74.5971 90.5972C74.684 90.5037 74.7961 90.828 74.8736 90.749C75.0942 90.527 75.3782 89.8949 75.6145 89.8031C75.8702 89.7065 76.2097 90.3961 76.3246 89.9453C76.3298 89.922 76.1182 89.6967 76.1507 89.6015C76.4871 88.6609 77.014 88.9266 77.8153 88.2593C78.3638 87.847 81.2635 84.7117 81.4709 84.7405C82.7154 85.0529 79.4276 88.2257 78.98 88.4531C78.8255 88.5493 78.7694 88.1416 78.6069 88.1972C78.5399 88.234 78.4369 89.1812 77.9852 89.6346C77.4265 90.1993 76.0226 90.7658 75.4675 91.2198C70.6952 95.1479 65.4729 98.0074 60.2794 100.952C60.1691 101.016 60.1886 101.46 59.8264 101.664C53.0592 105.457 45.732 108.582 38.6682 111.768C37.098 112.474 35.7209 113.45 34.0109 113.81C33.9072 114.167 33.8037 114.524 33.7009 114.881ZM57.0873 25.6519C57.5271 25.6852 57.969 25.7246 58.4124 25.7705C58.3847 26.0167 58.3573 26.2631 58.3306 26.5093C58.1288 26.4141 57.9264 26.3205 57.7236 26.228C57.5744 26.3776 57.4262 26.5298 57.28 26.6808C57.2162 26.3383 57.1528 25.9942 57.0873 25.6519ZM84.8564 46.7329C85.1939 46.5088 83.9254 45.0564 83.5572 45.1625C83.886 46.558 84.163 45.5798 84.8564 46.7329ZM45.9544 19.4944C45.4695 19.6727 45.3902 18.8207 45.3624 18.5673C45.5218 18.5314 45.6822 18.4956 45.8434 18.4605C45.8798 18.8049 45.9172 19.1502 45.9544 19.4944ZM54.8431 26.5096C55.0326 25.2564 55.7092 25.78 56.0725 26.7275C55.7068 26.8702 55.6547 26.3548 55.5662 26.3331C55.3015 26.2724 55.0923 26.4976 54.8431 26.5096ZM67.7538 35.9146C67.0884 36.3687 66.0085 36.1454 66.6182 34.9913C67.1056 35.728 67.5748 35.3441 68.3433 35.9452C68.165 36.1411 67.9885 36.338 67.8152 36.5373L67.7538 35.9146ZM69.4857 37.5795C70.1154 37.7721 70.7531 37.9949 71.365 38.2369C71.2932 38.3619 71.22 38.4872 71.1488 38.6126C70.5673 38.3864 69.9604 38.1779 69.3618 37.9966C69.4028 37.858 69.4446 37.7181 69.4857 37.5795ZM46.6765 21.9836C46.833 21.5297 48.9317 20.8841 48.7664 21.7893C48.4504 21.8599 48.2069 22.0517 47.8663 22.0914C47.8 22.0958 47.5257 21.2688 47.0398 22.2077C46.9187 22.133 46.7977 22.0578 46.6765 21.9836ZM50.3566 24.8889C50.657 24.8164 50.9687 24.7449 51.2665 24.6781C51.1321 24.4245 50.9964 24.1713 50.8565 23.9191C51.0022 23.8232 51.1389 23.7279 51.2812 23.6337C51.5994 24.06 51.9155 24.4897 52.2265 24.9207C51.5733 25.0782 50.9256 25.2466 50.2747 25.4284C50.3012 25.249 50.3292 25.0684 50.3566 24.8889ZM42.2578 20.7214C42.271 20.1179 43.323 19.5725 43.8142 19.4028C43.8351 19.4023 43.7641 19.7392 44.1181 19.6208C44.2179 19.5839 45.0898 18.1952 45.1061 19.535C44.1281 19.9146 43.2096 20.3018 42.2578 20.7214ZM64.8008 34.5622C63.5785 34.4857 64.9574 33.739 65.209 34.2294C65.3526 34.5216 64.9262 34.5696 64.8008 34.5622ZM64.1637 35.2331C63.4646 34.3681 65.7004 35.0204 64.9251 35.3685C64.8896 35.3819 64.1975 35.2648 64.1637 35.2331ZM62.5472 34.4167C62.7245 34.3853 62.904 34.357 63.0804 34.3282C62.6649 34.0788 62.2363 33.8343 61.8054 33.6007C62.5045 33.7889 63.1967 33.9987 63.8745 34.2295C63.7081 34.5712 63.5434 34.9145 63.384 35.2588C63.112 34.9745 62.8341 34.6944 62.5472 34.4167ZM92.8538 56.3107C92.4468 56.4904 92.0374 56.6655 91.6288 56.8404C91.7642 56.9704 91.8994 57.1034 92.0325 57.2382C92.3121 56.941 92.5817 56.6136 92.8538 56.3107ZM54.3041 31.8986C54.2604 31.2475 55.2912 31.8119 54.7025 30.9679C55.2304 31.4074 56.5783 31.0668 56.9014 31.2015C57.0993 31.28 57.1737 31.8379 57.2032 31.8547C57.3159 31.9104 58.31 31.2451 58.4432 31.6122C58.8068 32.6033 54.7079 31.7568 54.3041 31.8986ZM44.9078 26.5674C45.3044 25.4154 46.4845 25.8474 47.1672 25.7107C48.522 25.4413 47.4768 25.0301 47.6581 24.7132C47.75 24.5559 48.7249 25.4617 48.9288 24.763C48.9161 26.4669 46.0319 25.8918 44.9078 26.5674ZM41.1124 20.6994C41.2686 20.4644 41.4202 20.2314 41.5785 19.9978C41.746 20.2306 41.9123 20.4653 42.0789 20.6988C41.8668 20.8298 41.6556 20.9609 41.4495 21.0925C41.3368 20.9618 41.2296 20.8285 41.1124 20.6994ZM65.9495 40.5485C66.3124 40.7886 67.1244 39.5912 65.7281 39.5958C65.703 39.7399 65.6772 39.8839 65.6521 40.028C65.7083 40.0177 65.8889 39.9217 65.8954 39.9347C65.9118 39.979 65.7952 40.4485 65.9495 40.5485ZM33.2321 22.7314C33.3976 21.5295 33.7953 22.16 34.312 21.841C34.3436 21.8193 34.2569 21.598 34.2686 21.5917C34.4055 21.5203 34.6287 21.7393 34.7591 21.6842C35.0022 21.5785 35.1657 21.2 35.5889 21.0497C35.9288 20.9312 36.0717 21.3677 36.1884 21.3115C36.2805 21.2581 36.9768 19.6662 37.7827 19.9655C39.3225 20.5059 34.0893 22.6473 33.6902 22.7716C33.5352 22.7584 33.3824 22.7455 33.2321 22.7314ZM60.5083 37.6408C62.4193 38.4614 59.952 39.0092 59.4397 38.0049L59.4361 38.0057C59.3922 37.9123 59.487 37.4852 59.4114 37.3092C59.614 37.5095 59.8147 37.7106 60.0119 37.9143C60.1975 37.6781 60.3872 37.4445 60.5792 37.2118C60.6378 37.3107 60.695 37.4102 60.7518 37.5093C60.671 37.5527 60.5898 37.5968 60.5083 37.6408ZM71.9912 47.6153C72.6862 47.7155 72.2032 46.88 72.7305 46.5913C72.6033 46.5506 72.4745 46.512 72.3481 46.4752C72.2335 46.8577 72.1148 47.2379 71.9912 47.6153ZM72.2273 49.2709C72.6331 48.8499 73.2604 48.4249 73.4092 47.7688L73.4073 47.6695C73.3886 47.56 73.3307 47.4269 73.3604 47.3023C72.593 47.6705 72.2901 48.4693 72.2273 49.2709ZM50.8761 31.9156C51.2803 31.9716 51.688 32.0327 52.0949 32.0976C51.6433 32.2381 51.1952 32.3841 50.7568 32.5354C50.7952 32.329 50.8362 32.1219 50.8761 31.9156ZM43.0397 26.6243C44.4498 26.85 43.4787 25.5433 44.4107 26.47C43.9782 26.6607 43.5557 26.8541 43.1444 27.049C43.1096 26.9074 43.0745 26.7659 43.0397 26.6243ZM71.4813 48.284C71.6038 48.0249 71.7258 47.7634 71.846 47.5027C71.0404 48.1725 71.4864 46.683 71.1849 46.8451C71.1216 46.8827 70.9518 47.368 70.9583 47.5031C70.967 47.5858 71.3863 48.3241 71.4813 48.284ZM74.0571 49.9052C73.9139 50.5393 74.7573 49.7537 74.7686 49.6675C74.8133 49.1777 74.1268 49.5703 74.0571 49.9052ZM57.2161 37.7703C57.4952 37.6608 57.7767 37.5537 58.0604 37.4507C58.1008 37.5741 58.1413 37.6975 58.1811 37.821C57.9664 37.9469 57.7528 38.0743 57.5421 38.204C57.4347 38.0587 57.3253 37.9147 57.2161 37.7703ZM48.8576 32.9044C49.0426 31.7706 49.8904 32.6284 50.4388 32.2929C50.5574 32.9073 49.1682 32.685 48.8576 32.9044ZM70.4017 49.1956C70.312 49.6811 70.5529 49.8102 70.8954 49.2556C70.8642 48.9938 70.8271 48.7304 70.7858 48.4673C70.7295 48.6345 70.4169 49.1124 70.4017 49.1956ZM69.0588 48.8434C69.482 47.582 68.757 48.6207 68.9376 47.4978C68.8495 47.4399 68.7595 47.3811 68.6703 47.3249C68.5345 47.656 68.3988 47.9877 68.2632 48.319C68.5376 48.4873 68.8018 48.6628 69.0588 48.8434ZM67.5094 48.1438C67.757 48.4421 68.2828 47.4323 67.866 47.2307C67.6858 47.15 67.2392 47.8316 67.5094 48.1438ZM64.3303 46.9255C64.4142 47.2461 65.1513 46.4968 64.6796 46.1327C64.3739 45.9068 64.3184 46.869 64.3303 46.9255ZM71.4936 52.2107C72.5701 52.6374 72.5885 51.6541 71.8867 51.8876C71.7494 51.9368 71.6052 52.0515 71.4936 52.2107ZM52.4804 38.475C50.6399 38.7028 52.3658 37.2987 53.384 38.0322C53.4017 38.2282 52.6541 38.453 52.4804 38.475ZM63.5198 47.0469C63.9809 47.7176 63.9874 44.8036 63.056 46.5096C63.7658 46.3834 63.4917 47.0059 63.5198 47.0469ZM60.9088 47.1256C60.98 46.245 61.0517 45.3644 61.1283 44.4844C61.0861 44.6782 61.0467 44.8727 61.0056 45.0667C60.7447 45.0455 60.4848 45.0295 60.2171 45.0158C60.3705 45.7097 60.5103 46.406 60.6396 47.1015C60.7293 47.1095 60.8196 47.1167 60.9088 47.1256ZM61.3256 46.4114C61.4607 46.6464 61.8218 46.4918 61.7128 45.8881C61.6905 45.7838 61.308 46.1531 61.586 45.1184C61.2286 45.1002 61.2499 46.2754 61.3256 46.4114ZM58.3615 43.7192C58.6462 43.7421 58.9275 43.77 59.2046 43.8006C58.1474 44.0978 59.0178 44.2466 58.3856 44.6809C58.3767 44.3603 58.3704 44.0397 58.3615 43.7192ZM61.5113 46.7781C61.0867 48.0071 62.4227 48.289 62.1352 46.4048C62.0711 46.3363 62.0057 46.267 61.9405 46.1991C61.7955 46.3905 61.6519 46.584 61.5113 46.7781ZM29.4314 25.0858C29.5157 24.6061 29.5137 24.1748 29.5343 23.7338C29.718 23.6358 29.8314 23.5773 29.9576 23.5102C29.8154 24.3621 30.649 23.8284 31.1548 23.5781C31.3487 24.2289 30.2042 24.4448 29.4314 25.0858ZM98.1022 77.8363C99.3229 79.3893 98.4899 77.251 100.113 76.9532C99.0534 76.7616 99.6742 75.3332 99.6454 75.1868C99.2588 75.2074 98.8711 75.2205 98.4898 75.22C98.5736 75.9879 98.6372 76.7651 98.6787 77.5496C98.4864 77.6469 98.2948 77.7443 98.1022 77.8363ZM59.4143 45.4259C59.5463 45.4784 59.677 45.5342 59.8073 45.5885C59.7717 45.8313 59.7371 46.0743 59.7029 46.3173C59.5905 46.2658 59.4767 46.2167 59.3629 46.1666C59.3795 45.9206 59.397 45.6719 59.4143 45.4259ZM56.5733 44.3185C56.7196 44.1103 56.8702 43.9034 57.0209 43.6973C57.0318 44.0279 57.0412 44.3585 57.0526 44.6891C56.9779 44.7549 56.9034 44.822 56.8294 44.8883C56.7452 44.6982 56.6595 44.508 56.5733 44.3185ZM56.8492 47.4753C56.0592 47.4418 53.707 48.5061 53.2235 47.3996C53.1244 47.1616 53.1562 46.3995 53.1255 46.3649C53.0336 46.2709 52.6608 46.7055 52.6531 46.1497C53.0772 46.0777 53.5055 46.0118 53.9355 45.9532C53.8816 46.3533 53.8283 46.7532 53.7795 47.1534C54.7872 46.7941 54.4433 46.8735 54.643 45.9921C54.8581 46.2948 55.0694 46.5995 55.2775 46.9057C55.6238 46.5351 55.9643 46.1727 56.3174 45.8141C56.2512 46.0656 56.1855 46.3171 56.1223 46.569C56.7198 46.9759 56.5353 46.6927 56.8026 46.0774C56.8202 46.3223 56.8377 46.5674 56.8553 46.8123C57.3566 46.1821 57.5007 46.912 57.6148 46.9184C57.8293 46.9258 58.0826 44.0011 59.033 46.8937C59.3951 45.5093 59.3912 48.3366 59.6056 46.9047C60.1944 48.4899 59.0718 47.8824 58.5068 47.8438C58.4648 47.8399 58.5371 48.1019 58.3889 48.0836C58.3736 48.0766 58.3483 47.6697 58.2256 47.6569C57.782 47.6118 57.1826 47.4773 56.8492 47.4753ZM78.8827 61.639C78.8621 61.582 78.8407 61.5227 78.8186 61.4685C78.5737 61.4762 78.3275 61.4875 78.083 61.4993C78.3493 61.5334 78.6169 61.5793 78.8827 61.639ZM51.1861 43.5725C51.0922 43.4592 51.2399 42.9656 51.1654 42.8476C51.0989 42.7448 50.3008 42.4367 50.3511 41.6381C50.4754 41.6445 50.6018 41.6508 50.7265 41.6581C50.8044 41.8576 50.8812 42.0589 50.9583 42.2586C51.0381 42.0438 51.1195 41.8284 51.2024 41.6138C51.4889 42.0884 52.0054 42.6781 51.5923 43.1893C51.7633 43.111 51.9292 43.0341 52.0949 42.959C52.1451 42.6964 52.1969 42.4329 52.2499 42.1703C52.2604 42.5545 52.2731 42.9385 52.2857 43.3225C51.9273 43.3993 51.5529 43.4843 51.1861 43.5725ZM48.5648 42.5148C49.2075 42.6244 49.135 41.9374 49.1744 41.907C49.3621 41.7951 49.287 42.18 49.4166 42.1554C49.7605 42.0841 50.4567 41.6857 50.3121 42.762C50.2624 43.147 49.919 42.8824 49.8783 42.9497C49.8399 43.0246 50.1235 44.5446 49.2951 43.0916C49.1628 43.2248 49.0325 43.3588 48.9036 43.4928C48.7917 43.1671 48.6778 42.84 48.5648 42.5148ZM76.6662 67.5078C76.934 67.7303 77.2009 67.9543 77.4685 68.1771C77.3207 68.2369 77.1718 68.2962 77.0216 68.355C77.1156 68.4995 77.209 68.6459 77.3014 68.7924C77.7052 68.8985 78.1107 68.9983 78.5179 69.0916C78.5308 68.8147 78.5378 68.5432 78.5367 68.2774C78.3419 68.2497 78.1471 68.2193 77.953 68.1882C78.0569 67.6295 78.6659 68.238 79.1371 68.0576C78.9491 67.744 78.7556 67.4374 78.556 67.1387C78.9111 67.1507 79.2726 67.1444 79.631 67.1358C79.6549 66.7492 79.4536 66.6056 79.0523 66.6066C78.7685 66.2445 79.3998 66.43 79.3307 66.1727C79.3242 66.1519 78.977 65.9841 78.9748 65.9682C79.1 65.0201 79.9668 65.5327 80.0642 65.4065C80.1273 65.311 79.6309 64.6685 79.4141 64.579C79.114 64.4826 77.8075 64.5482 78.0541 63.6304C77.1494 63.7334 77.7047 64.7006 78.9908 64.8514C78.8213 64.9771 78.7475 65.9533 78.6738 66.0146C78.5858 66.068 78.1856 65.7894 78.1272 65.8834C78.0967 65.9325 78.9491 66.7072 77.8761 66.6697C77.9932 66.8356 78.1097 67.0044 78.2232 67.1752C78.0672 67.1487 77.9107 67.1214 77.7552 67.0926C77.3908 66.6531 77.0186 66.2249 76.6364 65.8115C76.875 66.5893 75.7695 66.3101 76.3125 67.1756C76.067 67.3634 75.9016 67.4204 75.6085 67.0066C75.5598 67.0816 75.5088 67.1562 75.4579 67.2324C75.6175 67.4491 75.7789 67.6655 75.9375 67.8828C76.1799 67.7662 76.4286 67.6325 76.6662 67.5078ZM77.5579 66.0986C77.4601 65.8874 77.3566 65.6823 77.25 65.4828C77.1117 65.4673 76.9733 65.4509 76.8352 65.4332C76.9166 65.6218 76.9961 65.815 77.0689 66.0142C77.2315 66.0435 77.3949 66.0721 77.5579 66.0986ZM90.5156 88.6194C90.4296 89.3891 91.5731 89.2181 91.8982 89.5885C92.1306 89.1245 92.6339 88.0676 92.9521 87.6371C93.1273 87.3986 93.556 88.2812 93.6126 86.5539C93.9509 86.4918 94.29 86.4252 94.6296 86.3537C94.6655 85.6762 94.6902 85.002 94.7016 84.332C94.9987 84.4646 95.2972 84.5955 95.5961 84.7246C95.6705 84.7082 95.8083 83.1695 95.5792 83.0764C96.3301 83.0353 96.9858 82.1893 97.5651 81.2104C97.4777 81.0131 97.3874 80.8173 97.2981 80.6218C97.0723 81.794 96.9815 80.8173 96.5553 80.9023C96.3093 80.9515 95.7245 81.2098 95.3905 81.2047C96.4161 81.2481 94.9475 83.7555 94.2787 84.3286C94.1174 84.4763 93.5286 84.4586 93.4825 84.625C93.5638 84.8257 93.6448 85.0276 93.7245 85.2297C93.1958 84.8928 92.6819 86.7718 92.4827 87.557C92.2786 87.4419 92.074 87.3254 91.8707 87.2089C91.7779 87.4712 91.6945 87.7223 91.6077 87.9723C91.4659 87.7809 91.3226 87.5904 91.1803 87.3995C91.2612 87.739 91.3406 88.0808 91.417 88.4231C91.1733 89.1914 90.5884 87.9282 90.5156 88.6194ZM45.6573 44.2824C45.0913 44.8468 44.1667 45.3248 44.3746 43.951C45.2272 43.5451 46.077 43.1642 46.9523 42.8023C47.0457 42.9286 47.1378 43.0561 47.2307 43.1827C46.4487 42.821 47.2275 45.1079 46.4925 44.6095C46.3685 44.5255 46.4252 43.6211 45.9688 44.3312C46.0409 44.5147 46.1123 44.7008 46.1841 44.8844C46.0389 44.8798 45.8947 44.8746 45.7516 44.8705C45.7203 44.6747 45.6883 44.4783 45.6573 44.2824ZM47.2168 44.1018C47.1609 44.0527 47.2524 42.9933 47.7825 43.51C48.2885 44.0115 47.4912 44.3178 47.2168 44.1018ZM75.2577 66.5507C75.1736 66.387 75.0881 66.2235 75.0005 66.0639C74.9052 66.1128 74.5258 65.9979 74.5017 66.0071C74.4107 66.042 74.1106 66.2505 74.4071 66.4497C74.6895 66.4873 74.9748 66.5204 75.2577 66.5507ZM82.3075 83.7547C84.2705 81.8071 86.3186 79.6195 87.592 77.1266C87.8409 77.1555 88.0909 77.1834 88.3411 77.2073C86.5068 80.0345 84.3645 82.5327 82.0992 84.8073C82.1718 84.4554 82.2425 84.1044 82.3075 83.7547ZM73.069 70.5114C74.5317 71.5293 74.7989 68.3777 76.2656 68.7444C76.1056 68.4911 75.9442 68.2396 75.7797 67.9914C75.7306 68.494 75.1282 68.3475 74.9458 68.455C74.8005 68.5424 75.0197 68.7329 75.0091 68.7402C74.6831 68.9721 74.4048 68.8709 74.1882 69.0844C73.6457 69.6123 74.0147 70.6816 73.069 70.5114ZM43.6734 45.3251C43.1359 45.5862 41.8492 46.3922 41.3838 45.565C41.8014 45.2896 43.6353 44.3603 43.961 44.9402C43.9157 45.1393 43.8714 45.3386 43.8299 45.537C43.7506 45.6056 43.7113 45.3064 43.6734 45.3251ZM77.0717 70.6852C76.8041 70.4284 76.5352 70.1733 76.2676 69.9166C76.0862 70.2711 75.8879 70.6347 75.6801 70.9988C76.1477 70.9026 76.6132 70.7944 77.0717 70.6852ZM73.1013 69.6201C73.3306 69.1522 74.3011 68.8313 73.5997 68.1459C73.3542 68.5219 73.1135 68.8801 72.8476 69.2512C72.9323 69.374 73.0171 69.4968 73.1013 69.6201ZM75.0385 72.2221C75.2765 72.4574 75.3876 72.9236 75.8554 72.9688C75.9027 72.7347 75.9479 72.5024 75.9883 72.2718C76.1758 72.3368 76.3642 72.402 76.5523 72.465C76.5154 71.8872 76.1264 72.1848 75.7281 71.8387C75.5732 71.7007 75.6176 71.2597 74.8354 71.0385C74.6784 71.1239 74.9631 71.3103 74.9573 71.3258C74.8758 71.4072 74.6171 71.2875 74.6054 71.341C74.4307 72.3836 74.9834 72.183 75.0385 72.2221ZM40.1541 47.192L39.9788 46.9694C39.2405 45.9428 40.4595 46.1272 40.5087 46.0991C40.576 46.0481 40.4589 44.841 41.4891 46.2312C41.1184 46.3632 40.6657 46.5394 40.3051 46.6799C41.3841 46.4993 40.5653 47.6446 40.1541 47.192ZM68.9131 77.023C68.7017 76.7048 68.4881 76.3878 68.2767 76.0695C68.4133 76.2016 68.5506 76.334 68.6876 76.4657C68.7328 76.2422 68.7783 76.0185 68.8201 75.7964C69.0692 76.0192 69.3191 76.2431 69.5695 76.4644C69.4165 76.0976 69.262 75.7302 69.1064 75.3651C68.1437 75.3099 68.5389 75.8475 68.4112 75.9469C68.3463 75.9973 68.1743 75.835 68.0858 75.7548C68.0691 75.7421 68.0522 75.7298 68.0355 75.717C67.8777 75.8377 67.6782 76.7507 67.8165 76.9119C68.1776 76.9555 68.5434 76.9913 68.9131 77.023ZM88.6148 93.1598C89.1168 92.1846 89.7309 91.9432 88.8571 91.294C88.5348 91.7023 88.2048 92.1098 87.8728 92.5114C88.1195 92.7283 88.3671 92.9441 88.6148 93.1598ZM82.3221 90.0071C82.3075 89.7654 82.292 89.5242 82.2754 89.2835C81.8175 89.6628 81.1952 89.8291 81.2983 90.5587C81.6411 90.3776 81.9779 90.1976 82.3221 90.0071ZM87.1758 93.0046C86.723 92.9077 86.8274 94.4407 87.2695 94.0953C87.6074 93.8281 87.4205 93.057 87.1758 93.0046ZM73.5896 84.2556C73.8516 84.0693 74.1123 83.8836 74.3697 83.6956C74.1935 84.0017 74.0136 84.3081 73.8302 84.6146C73.7502 84.4954 73.6697 84.3749 73.5896 84.2556ZM73.3513 88.2072C74.0333 89.139 76.327 85.7023 75.8912 85.6672C74.9935 86.6538 73.8945 86.8436 73.3513 88.2072ZM83.6193 94.7736C84.317 95.7512 83.9214 96.2543 85.2097 96.5838C85.3228 96.4544 85.435 96.3243 85.5472 96.1944C85.4752 95.906 85.4048 95.6169 85.3311 95.3296C88.0386 95.574 86.6648 92.6405 84.9716 95.1852L84.6299 95.7707C84.2924 95.4389 83.9549 95.1073 83.6193 94.7736ZM77.7766 101.835C78.2364 102.023 78.4707 101.143 78.5237 101.11C78.7006 101.038 79.195 101.347 79.4448 101.118C79.5888 100.982 79.5771 100.189 79.8867 99.9504C80.5799 99.422 82.7633 99.8689 82.7789 97.745C82.9508 97.8488 83.1234 97.9537 83.2958 98.0566C83.9087 97.3858 83.3387 97.082 84.3717 97.1353C83.0991 94.3066 81.9365 99.3866 81.2011 96.8354C81.0973 96.9645 80.9921 97.0931 80.8875 97.2218C81.2132 97.7693 81.5394 98.3164 81.8644 98.8645C80.6812 97.8669 81.0106 99.4654 79.733 99.0975C79.772 99.3107 79.812 99.5242 79.8503 99.7378C79.3585 99.6005 76.7212 101.407 77.7766 101.835ZM61.491 81.4786C61.5191 81.3191 61.5479 81.1594 61.5751 81.0002C61.403 80.9767 61.2303 80.9502 61.0581 80.9261C61.0556 81.1527 61.0538 81.3815 61.0501 81.6086C61.1973 81.5654 61.3443 81.5222 61.491 81.4786ZM69.722 92.9374C69.5496 92.9244 66.6128 95.3771 68.5731 95.4184C68.9301 95.1369 69.2862 94.8539 69.6383 94.5694C68.4281 93.1475 70.2496 93.9093 70.3569 93.8828C70.8468 93.7627 71.1336 93.0174 71.4291 92.8329C71.6839 92.6759 71.9959 92.8563 72.1631 92.724C72.731 92.2771 73.6451 91.5748 73.3722 90.8194C72.9091 91.1518 72.4512 91.4838 71.9945 91.8425C71.5071 92.2233 70.7142 91.906 70.2549 93.4427C69.9674 93.5129 69.7671 92.9498 69.722 92.9374ZM60.5269 82.1275C60.468 81.8789 60.408 81.6301 60.3484 81.3818C60.204 81.6481 60.0582 81.9147 59.9101 82.1813C60.116 82.1641 60.3215 82.1455 60.5269 82.1275ZM84.4881 102.437C84.5397 101.81 85.5501 101.365 86.0483 100.761C85.0517 100.437 85.0092 101.485 84.171 101.961C84.276 102.119 84.383 102.278 84.4881 102.437ZM68.7138 91.715L68.7102 91.7158C67.8244 90.786 68.3861 91.9576 67.1876 92.1407C67.2141 92.3842 67.2421 92.6279 67.2676 92.8718C67.7533 92.4899 68.2253 92.111 68.7138 91.715ZM64.4933 92.7125C64.734 93.6985 65.2798 92.8928 65.6902 93.0563C66.3553 93.3231 66.0107 94.1281 66.7978 93.1862C66.8496 93.3817 66.9006 93.5782 66.952 93.7739C67.5408 93.4601 66.7271 92.4066 66.7443 92.1884C66.7499 92.1224 67.1461 91.9904 67.1671 91.8737C67.4221 90.4158 65.9894 92.1311 65.8897 92.1858C65.7969 92.2351 64.4189 92.4047 64.4933 92.7125ZM76.4047 102.293C76.4646 102.355 77.8087 102.028 77.1889 101.467C76.8744 101.184 76.2579 102.14 76.4047 102.293ZM64.6988 97.7804C65.0432 97.3941 65.2639 97.0763 65.0366 96.549C65.2444 96.6458 65.4519 96.7436 65.6602 96.8394C65.7928 96.584 65.9302 96.3244 66.0641 96.0666C66.3018 96.584 66.3067 96.5468 66.4371 96.0044C66.6434 96.0412 66.8499 96.0776 67.0565 96.1134C67.0049 95.8624 66.9533 95.6113 66.901 95.3606C67.1782 95.579 67.4571 95.7953 67.7356 96.0122C68.0374 95.3802 67.4436 94.9942 67.2913 94.4167C66.9559 95.5215 64.5791 95.4647 64.4241 96.5955C64.4202 96.6705 64.9154 96.8032 64.6988 97.7804ZM74.9093 102.822C74.9337 103.401 75.1409 104.024 75.8682 103.902L75.7475 103.591C75.608 102.999 76.383 103.274 76.5691 103.063C76.5748 102.913 76.5803 102.763 76.5856 102.614C76.0266 102.688 75.4676 102.756 74.9093 102.822ZM60.6742 92.785C61.0147 92.4936 61.3542 92.4236 61.514 92.9478C61.3061 93.0481 61.0978 93.1478 60.8892 93.2471C60.8177 93.0936 60.7457 92.9386 60.6742 92.785ZM72.6631 105.436C73.3828 105.187 73.0982 104.973 73.9897 105.185C74.4489 103.895 73.7852 104.479 73.4325 103.826C73.3438 104.146 73.2527 104.466 73.1616 104.786C72.3647 104.484 72.6441 103.883 72.6119 103.825C72.5067 103.628 72.4994 103.576 72.2569 103.575C72.3938 104.195 72.53 104.815 72.6631 105.436ZM58.373 96.6472C58.5552 97.5438 59.8455 96.3562 60.2233 96.2379C60.4103 96.1818 61.7175 96.4465 62.1922 95.5823C62.1632 95.5313 62.1341 95.4804 62.1051 95.4295C61.1803 93.9793 59.5189 96.3819 58.373 96.6472ZM64.0153 97.6896C63.9492 97.4482 63.8811 97.2069 63.8146 96.9657C63.6664 97.1959 63.5171 97.4271 63.3672 97.6569C63.5828 97.6682 63.7994 97.6793 64.0153 97.6896ZM72.2007 105.651C72.1198 105.482 72.0394 105.313 71.9585 105.144C71.6961 106.125 71.1199 105.62 70.9647 105.666C70.4604 105.813 70.0039 105.972 69.4955 106.026C69.835 106.31 70.1782 106.593 70.5196 106.876C71.0743 106.478 71.6431 106.063 72.2007 105.651ZM58.9746 99.9684C58.9729 100.079 58.9717 100.19 58.9698 100.3C59.7035 100.182 59.7121 99.491 60.0797 99.38C60.1195 99.3687 60.31 99.6648 60.4481 99.6009C60.7648 99.4521 61.6951 99.0646 61.6461 98.6805C61.5412 97.8658 59.9495 99.2066 59.6045 99.3584C59.4496 99.4275 59.1422 99.2466 59.0492 99.2906C58.9478 99.3399 58.9872 99.7985 58.7406 99.9218C58.6606 99.9576 57.6808 99.9435 57.3731 100.194C57.4826 100.328 57.5926 100.462 57.7023 100.595C58.127 100.389 58.5515 100.179 58.9746 99.9684ZM8.95836 118.035C14.1638 118.378 33.3894 109.779 38.17 107.703C38.6847 107.48 38.8887 107.89 39.0599 107.764C39.1725 107.68 39.0281 107.341 39.1916 107.268C45.1426 104.634 50.5945 101.493 56.1652 98.7099C56.5161 98.5386 58.5246 98.3245 58.3812 97.0377C58.271 96.0648 57.371 97.3775 57.166 97.4804C57.0141 97.5573 56.8343 97.1789 56.7336 97.2289C56.6269 97.2864 56.8325 97.5031 56.7109 97.5753C56.1961 97.8832 55.5767 98.0903 55.1116 98.3689C50.5428 101.097 45.8747 103.273 41.0628 105.362C40.4714 105.619 40.476 105.242 40.4457 105.254C37.341 106.589 19.8678 114.7 16.4522 115.716C13.9635 116.434 11.5874 117.072 9.09129 117.716C9.04651 117.822 9.00265 117.929 8.95836 118.035ZM68.0094 107.041C68.6894 108.17 68.8919 108.23 69.3641 106.85C69.256 106.726 69.1481 106.601 69.0402 106.477C68.6254 106.847 68.492 107.284 68.2669 106.616C68.1813 106.757 68.0954 106.899 68.0094 107.041ZM62.114 111.172C62.1939 111.349 62.273 111.525 62.3529 111.701C62.4601 110.849 64.2082 110.22 64.4477 110.868C64.414 110.556 64.3803 110.244 64.3458 109.932C65.4555 110.206 65.7679 109.06 66.942 109.258C66.9044 109.003 66.8672 108.747 66.829 108.492C66.9554 108.641 67.082 108.792 67.2087 108.941C67.5281 108.78 67.8473 108.618 68.166 108.455C68.8241 107.153 66.4419 107.413 66.2568 107.649C66.2325 107.682 66.4524 108.133 66.2913 108.318C66.0015 108.651 63.8488 109.318 63.3831 109.952C63.2397 109.652 63.0966 109.35 62.9533 109.049C62.8347 109.503 62.7146 109.958 62.5932 110.411C62.3264 109.936 61.8663 111.15 61.5196 109.845C61.4442 110.407 61.3657 110.971 61.2868 111.533C61.3382 111.644 61.3903 111.755 61.4417 111.866C61.6657 111.636 61.8909 111.404 62.114 111.172ZM50.1849 104.497C50.4586 104.791 50.5919 104.313 50.715 104.322C50.741 104.337 50.6831 104.714 50.939 104.693C50.9198 104.458 50.9019 104.222 50.8824 103.987C50.6504 104.158 50.4169 104.327 50.1849 104.497ZM36.1371 106.144C36.1952 106.12 36.3504 105.67 36.1194 105.673C35.503 106.091 34.8913 106.505 34.2888 106.911C34.8974 106.661 35.5147 106.405 36.1371 106.144ZM33.4883 112.446C34.2453 111.474 35.8419 111.617 36.7398 111.297C36.9895 111.207 36.8236 110.95 36.8302 110.932C36.9712 110.873 37.8651 111.323 37.7564 110.38C37.4226 110.053 33.4442 111.852 33.3737 112.098C33.3596 112.167 33.466 112.335 33.4883 112.446ZM13.6465 114.904C13.6783 115.336 14.2684 115.103 14.4795 115.052C15.384 114.838 30.566 108.341 31.4558 108.05C31.3459 107.947 17.1605 113.715 17.051 113.612C15.9751 114.029 14.7429 114.497 13.6465 114.904ZM44.5466 120.84C44.9071 119.811 46.1401 119.85 45.5288 118.817L45.2464 119.21C44.7135 119.906 44.9561 119.228 43.8345 119.714C44.0712 120.09 44.3089 120.465 44.5466 120.84ZM15.9001 122.039C16.15 122.342 31.2658 115.728 31.6141 115.598C32.0904 115.423 33.5573 115.709 33.1682 114.149C32.8484 114.266 15.3626 121.452 15.9001 122.039ZM11.0933 115.547C11.5544 115.913 12.2977 115.554 12.7938 115.378C12.3248 115.095 11.5977 115.591 11.0933 115.547ZM41.2313 122.406C41.444 122.508 41.7928 121.01 41.4739 120.879C41.2589 121.134 41.0447 121.388 40.8314 121.641C40.9648 121.896 41.0977 122.151 41.2313 122.406ZM10.4946 114.982C10.4375 114.795 10.3783 114.609 10.3212 114.422L10.3219 114.426C9.89615 114.685 9.45427 114.948 8.98719 115.219C9.5111 115.135 10.0105 115.055 10.4946 114.982ZM36.7705 123.75C37.6511 123.755 38.6238 123.77 38.0301 122.46C38.2122 122.387 38.3955 122.312 38.5791 122.237C38.6122 122.865 38.7055 123.04 39.2938 123.207C39.1289 122.381 39.7369 122.587 40.229 122.187C39.813 122.307 39.4004 122.425 38.9911 122.54C38.9443 122.401 38.897 122.261 38.8503 122.123C39.7447 121.814 38.3658 121.382 37.9394 122.179C37.8308 122.014 37.7209 121.848 37.6126 121.682C37.5613 121.911 37.512 122.14 37.4608 122.368C37.2569 122.294 37.0518 122.218 36.8495 122.143C36.8229 122.679 36.797 123.215 36.7705 123.75ZM13.1202 122.148C13.257 122.89 15.4775 122.187 15.5982 122.001C15.5242 121.916 15.3891 121.715 15.3169 121.685C14.981 121.539 13.6129 122.184 13.1202 122.148ZM33.3412 125.398C33.9424 124.883 33.391 124.366 34.1969 123.819C33.727 123.948 33.262 124.07 32.8053 124.192C32.9829 124.594 33.1631 124.997 33.3412 125.398ZM16.9485 131.665C16.9566 131.352 16.9654 131.039 16.9738 130.726C16.7629 131.039 16.5526 131.35 16.3469 131.66C16.546 131.662 16.7465 131.664 16.9485 131.665Z" fill="white"/>
</g>
</g>
<rect x="1" y="1" width="128" height="128" rx="64" stroke="white" stroke-width="2"/>
<path d="M145 99.7317V17H164.996V83.4924H199.414V99.7317H145Z" fill="white"/>
<path d="M233.082 100.903C226.592 100.903 220.99 99.624 216.277 97.0655C211.591 94.4802 207.983 90.8041 205.451 86.0373C202.947 81.2436 201.694 75.5478 201.694 68.9497C201.694 62.5401 202.96 56.9385 205.491 52.1448C208.023 47.3242 211.591 43.5808 216.197 40.9146C220.802 38.2215 226.228 36.875 232.476 36.875C236.893 36.875 240.933 37.5617 244.595 38.9352C248.258 40.3087 251.422 42.342 254.088 45.0351C256.754 47.7281 258.828 51.0541 260.309 55.013C261.791 58.9449 262.531 63.4558 262.531 68.5457V73.4741H208.602V62.0015H244.151C244.124 59.9009 243.626 58.0292 242.656 56.3864C241.687 54.7436 240.354 53.4644 238.657 52.5488C236.987 51.6062 235.062 51.1349 232.88 51.1349C230.672 51.1349 228.692 51.6331 226.942 52.6296C225.191 53.5991 223.804 54.9322 222.781 56.6288C221.758 58.2985 221.219 60.1972 221.165 62.3247V73.9992C221.165 76.5307 221.663 78.7525 222.66 80.6646C223.656 82.5498 225.07 84.0175 226.902 85.0678C228.733 86.1181 230.914 86.6433 233.446 86.6433C235.196 86.6433 236.785 86.4009 238.213 85.9162C239.64 85.4314 240.865 84.7177 241.889 83.7752C242.912 82.8326 243.679 81.6745 244.191 80.3011L262.329 80.8262C261.575 84.8928 259.919 88.4342 257.36 91.4505C254.829 94.4398 251.503 96.7693 247.382 98.439C243.262 100.082 238.495 100.903 233.082 100.903Z" fill="white"/>
<path d="M323.379 56.6288L305.241 57.1136C305.052 55.8209 304.541 54.6763 303.706 53.6799C302.871 52.6565 301.78 51.862 300.434 51.2965C299.114 50.704 297.579 50.4078 295.829 50.4078C293.539 50.4078 291.587 50.8656 289.971 51.7812C288.382 52.6969 287.601 53.9357 287.628 55.4977C287.601 56.7096 288.086 57.7599 289.082 58.6486C290.106 59.5373 291.924 60.251 294.536 60.7896L306.493 63.0518C312.687 64.2368 317.293 66.2027 320.309 68.9497C323.352 71.6966 324.887 75.3323 324.914 79.8567C324.887 84.1118 323.621 87.8148 321.117 90.9657C318.639 94.1166 315.246 96.5673 310.937 98.3178C306.628 100.041 301.7 100.903 296.152 100.903C287.292 100.903 280.303 99.0854 275.186 95.4497C270.096 91.7871 267.188 86.8857 266.46 80.7454L285.972 80.2607C286.403 82.5229 287.52 84.2464 289.325 85.4314C291.129 86.6164 293.432 87.2088 296.233 87.2088C298.764 87.2088 300.824 86.7375 302.413 85.795C304.002 84.8524 304.81 83.6001 304.837 82.0381C304.81 80.6377 304.191 79.5201 302.979 78.6852C301.767 77.8234 299.868 77.1502 297.283 76.6654L286.457 74.6052C280.236 73.4741 275.604 71.3869 272.56 68.3437C269.517 65.2736 268.009 61.3686 268.036 56.6288C268.009 52.4815 269.113 48.94 271.348 46.0046C273.584 43.0422 276.762 40.78 280.882 39.218C285.002 37.656 289.863 36.875 295.465 36.875C303.867 36.875 310.492 38.639 315.34 42.1669C320.188 45.6679 322.867 50.4886 323.379 56.6288Z" fill="white"/>
<path d="M385.398 56.6288L367.26 57.1136C367.072 55.8209 366.56 54.6763 365.725 53.6799C364.89 52.6565 363.8 51.862 362.453 51.2965C361.133 50.704 359.598 50.4078 357.848 50.4078C355.559 50.4078 353.606 50.8656 351.99 51.7812C350.402 52.6969 349.621 53.9357 349.647 55.4977C349.621 56.7096 350.105 57.7599 351.102 58.6486C352.125 59.5373 353.943 60.251 356.555 60.7896L368.513 63.0518C374.707 64.2368 379.312 66.2027 382.328 68.9497C385.371 71.6966 386.906 75.3323 386.933 79.8567C386.906 84.1118 385.641 87.8148 383.136 90.9657C380.658 94.1166 377.265 96.5673 372.956 98.3178C368.647 100.041 363.719 100.903 358.171 100.903C349.311 100.903 342.322 99.0854 337.205 95.4497C332.115 91.7871 329.207 86.8857 328.48 80.7454L347.991 80.2607C348.422 82.5229 349.54 84.2464 351.344 85.4314C353.148 86.6164 355.451 87.2088 358.252 87.2088C360.783 87.2088 362.844 86.7375 364.432 85.795C366.021 84.8524 366.829 83.6001 366.856 82.0381C366.829 80.6377 366.21 79.5201 364.998 78.6852C363.786 77.8234 361.888 77.1502 359.302 76.6654L348.476 74.6052C342.255 73.4741 337.623 71.3869 334.58 68.3437C331.536 65.2736 330.028 61.3686 330.055 56.6288C330.028 52.4815 331.132 48.94 333.368 46.0046C335.603 43.0422 338.781 40.78 342.901 39.218C347.022 37.656 351.883 36.875 357.484 36.875C365.887 36.875 372.512 38.639 377.359 42.1669C382.207 45.6679 384.887 50.4886 385.398 56.6288Z" fill="white"/>
<path d="M413 17V99.7317H393.246V17H413Z" fill="white"/>
<path d="M434.239 123C431.869 123 429.634 122.811 427.533 122.434C425.433 122.084 423.628 121.613 422.12 121.021L426.483 106.68C428.422 107.326 430.172 107.703 431.734 107.811C433.323 107.919 434.683 107.663 435.814 107.043C436.972 106.451 437.861 105.387 438.481 103.852L439.248 101.994L417.192 37.6829H437.875L449.307 81.9573H449.953L461.547 37.6829H482.351L458.962 105.67C457.83 109.063 456.228 112.053 454.154 114.638C452.108 117.25 449.455 119.297 446.196 120.778C442.965 122.259 438.979 123 434.239 123Z" fill="white"/>
<defs>
<clipPath id="clip0_23_50">
<rect x="1" y="1" width="128" height="128" rx="64" fill="white"/>
</clipPath>
</defs>
</svg>
